G75*
G70*
%OFA0B0*%
%FSLAX24Y24*%
%IPPOS*%
%LPD*%
%AMOC8*
5,1,8,0,0,1.08239X$1,22.5*
%
%ADD10C,0.0100*%
%ADD11R,0.0860X0.0860*%
%ADD12C,0.0594*%
%ADD13C,0.0787*%
%ADD14C,0.0520*%
%ADD15OC8,0.0520*%
%ADD16C,0.0760*%
%ADD17C,0.0515*%
%ADD18C,0.0520*%
%ADD19OC8,0.1000*%
%ADD20R,0.1000X0.1000*%
%ADD21C,0.1000*%
%ADD22C,0.0160*%
%ADD23C,0.0400*%
%ADD24C,0.0120*%
%ADD25C,0.0591*%
%ADD26C,0.0531*%
%ADD27C,0.0660*%
D10*
X005202Y003641D02*
X005206Y003706D01*
X006706Y003706D01*
X008206Y003706D01*
X008206Y007498D01*
X007498Y008206D01*
X007206Y008206D01*
X002706Y012706D01*
X002639Y012918D01*
X002706Y013206D01*
X007706Y013206D01*
X007706Y013200D01*
X010206Y009206D02*
X015206Y014206D01*
X015206Y013706D02*
X013706Y012206D01*
X013706Y002206D01*
X014206Y001706D01*
X014206Y003706D02*
X015706Y003706D01*
X015706Y004706D02*
X015646Y004706D01*
X015706Y004706D02*
X015706Y022206D01*
X016706Y023206D01*
X017706Y023206D02*
X019206Y021706D01*
X019206Y019706D01*
X020206Y022791D02*
X018791Y024206D01*
X016706Y024206D01*
X015706Y023206D01*
X014706Y023206D02*
X014706Y020206D01*
X014206Y019706D01*
X020206Y022791D02*
X020206Y007706D01*
X020343Y007706D01*
X020706Y007706D01*
X020706Y003706D01*
X023206Y003706D01*
X020706Y003706D02*
X020206Y003706D01*
X018706Y003706D01*
X017772Y004706D02*
X017706Y004706D01*
X017706Y011706D01*
X018206Y012206D02*
X018206Y002206D01*
X018706Y001706D01*
X014938Y004706D02*
X014706Y004706D01*
X014706Y012206D01*
X015206Y012706D01*
X017206Y013206D02*
X018206Y012206D01*
X010206Y009206D02*
X010206Y003206D01*
X007706Y003206D01*
X006706Y002206D01*
X006706Y001706D01*
X008206Y003706D02*
X009706Y003706D01*
X010206Y003206D02*
X010206Y002206D01*
X009706Y001706D01*
X011206Y003706D02*
X011206Y004706D01*
X010706Y005206D01*
X007706Y005206D02*
X006706Y006206D01*
X006426Y006206D01*
X007706Y007206D02*
X004630Y007206D01*
X004206Y006781D01*
X004206Y006206D01*
X004024Y006206D01*
X024256Y024206D02*
X024406Y024056D01*
X024706Y024056D01*
X024856Y024206D01*
X024856Y024806D01*
X024256Y024206D01*
X024256Y024806D01*
X024406Y024956D01*
X024706Y024956D01*
X024856Y024806D01*
X025176Y024956D02*
X025176Y024506D01*
X025476Y024656D01*
X025627Y024656D01*
X025777Y024506D01*
X025777Y024206D01*
X025627Y024056D01*
X025326Y024056D01*
X025176Y024206D01*
X025176Y024956D02*
X025777Y024956D01*
X026097Y024806D02*
X026247Y024656D01*
X026097Y024806D02*
X026097Y025106D01*
X026557Y024656D02*
X026858Y024956D01*
X026858Y024056D01*
X027158Y024056D02*
X026557Y024056D01*
X027478Y024056D02*
X028079Y024056D01*
X027778Y024056D02*
X027778Y024956D01*
X027478Y024656D01*
X028206Y007706D02*
X028217Y007706D01*
X028206Y007706D02*
X028206Y006206D01*
X027206Y005206D01*
D11*
X017706Y023206D03*
D12*
X016706Y023206D03*
X015706Y023206D03*
X014706Y023206D03*
X013706Y023206D03*
X014206Y003706D03*
X015706Y003706D03*
X015706Y001706D03*
X014206Y001706D03*
X011206Y001706D03*
X009706Y001706D03*
X009706Y003706D03*
X011206Y003706D03*
X006706Y003706D03*
X006706Y001706D03*
X018706Y001706D03*
X020206Y001706D03*
X020206Y003706D03*
X018706Y003706D03*
X023206Y003706D03*
X023206Y001706D03*
D13*
X006426Y005812D02*
X006426Y006599D01*
X005599Y008095D02*
X004812Y008095D01*
X004024Y006599D02*
X004024Y005812D01*
D14*
X010706Y007206D03*
X028352Y004559D03*
X028352Y003559D03*
D15*
X004702Y002891D03*
X005202Y003641D03*
X005702Y002891D03*
X007706Y005206D03*
X007706Y007206D03*
X010706Y005206D03*
D16*
X002639Y012538D02*
X002639Y013298D01*
X002639Y017892D02*
X002639Y018652D01*
D17*
X004583Y023149D02*
X004583Y023664D01*
X005292Y023664D02*
X005292Y023149D01*
X026709Y023149D02*
X026709Y023664D01*
X027418Y023664D02*
X027418Y023149D01*
X017772Y004963D02*
X017772Y004448D01*
X017064Y004448D02*
X017064Y004963D01*
X016355Y004963D02*
X016355Y004448D01*
X015646Y004448D02*
X015646Y004963D01*
X014938Y004963D02*
X014938Y004448D01*
X014229Y004448D02*
X014229Y004963D01*
D18*
X023946Y005206D02*
X024466Y005206D01*
X024466Y006206D02*
X023946Y006206D01*
X023946Y004206D02*
X024466Y004206D01*
X024466Y003206D02*
X023946Y003206D01*
X026946Y003206D02*
X027466Y003206D01*
X027466Y004206D02*
X026946Y004206D01*
X026946Y005206D02*
X027466Y005206D01*
X027466Y006206D02*
X026946Y006206D01*
D19*
X020343Y007706D03*
D20*
X028217Y007706D03*
D21*
X007706Y013200D03*
X007706Y017211D03*
D22*
X005006Y023906D02*
X005006Y024306D01*
X004806Y024306D01*
X004206Y024306D01*
X003806Y024306D01*
X003806Y023906D01*
X004206Y024306D02*
X004206Y025006D01*
X004806Y025006D01*
X004806Y024306D01*
X005206Y024506D02*
X005206Y025006D01*
X005306Y025006D02*
X005306Y024106D01*
X005906Y024106D01*
X005906Y024606D01*
X005406Y024606D01*
X006106Y024806D02*
X006106Y025006D01*
X006206Y025006D02*
X006206Y024106D01*
X006506Y024106D02*
X006506Y024506D01*
X007006Y024506D01*
X007006Y024106D01*
X007306Y024106D02*
X007306Y024606D01*
X007906Y024606D01*
X007906Y024106D01*
X007306Y024106D01*
X007306Y024606D02*
X007306Y025006D01*
X007006Y025006D02*
X007006Y024506D01*
X006506Y024506D02*
X006506Y025006D01*
X008106Y025006D02*
X008106Y024806D01*
X008206Y024806D01*
X008206Y024606D01*
X008406Y024606D01*
X008906Y024106D01*
X009106Y024306D02*
X009106Y024506D01*
X009206Y024606D01*
X009606Y025006D01*
X009706Y025006D01*
X009806Y024906D01*
X009806Y024206D01*
X009906Y024106D01*
X009706Y024306D02*
X009306Y024306D01*
X009206Y024106D02*
X009206Y024606D01*
X008806Y025006D02*
X008406Y024606D01*
X008206Y024606D02*
X008206Y024106D01*
X008206Y024806D02*
X008206Y025006D01*
X020206Y007706D02*
X025706Y007706D01*
X027206Y006206D01*
D23*
X017706Y011706D03*
X017206Y013206D03*
X015206Y013706D03*
X015206Y014206D03*
X015206Y012706D03*
X013406Y018006D03*
X014206Y019706D03*
X013906Y020506D03*
X019206Y019706D03*
X007706Y003206D03*
D24*
X007706Y017211D02*
X008500Y018006D01*
X013406Y018006D01*
X013906Y020506D02*
X013906Y023006D01*
X013706Y023206D01*
D25*
X012706Y023706D03*
X011706Y023706D03*
X010706Y023706D03*
X010706Y024706D03*
X011706Y024706D03*
X012706Y024706D03*
X021706Y023706D03*
X022706Y023706D03*
X023706Y023706D03*
X023706Y024706D03*
D26*
X022706Y024706D03*
D27*
X030206Y021706D03*
X030206Y020706D03*
X030206Y019706D03*
X030206Y018706D03*
X030206Y017706D03*
X030206Y016706D03*
X030206Y015706D03*
X030206Y014706D03*
X030206Y013706D03*
X030206Y012706D03*
X030206Y011706D03*
X030206Y010706D03*
X030206Y009706D03*
X001206Y009706D03*
X001206Y010706D03*
X001206Y011706D03*
X001206Y012706D03*
X001206Y013706D03*
X001206Y014706D03*
X001206Y015706D03*
X001206Y016706D03*
X001206Y017706D03*
X001206Y018706D03*
X001206Y019706D03*
X001206Y020706D03*
X001206Y021706D03*
M02*
