G75*
%MOIN*%
%OFA0B0*%
%FSLAX25Y25*%
%IPPOS*%
%LPD*%
%AMOC8*
5,1,8,0,0,1.08239X$1,22.5*
%
%ADD10R,0.06299X0.03543*%
%ADD11R,0.06693X0.03937*%
%ADD12C,0.00236*%
%ADD13R,0.18504X0.18504*%
%ADD14C,0.03575*%
%ADD15C,0.01000*%
%ADD16C,0.01000*%
%ADD17R,0.02362X0.02362*%
%ADD18R,0.03543X0.04134*%
%ADD19R,0.03937X0.07087*%
%ADD20R,0.00984X0.03150*%
%ADD21R,0.03150X0.00984*%
%ADD22R,0.06500X0.06500*%
%ADD23C,0.06500*%
%ADD24R,0.05315X0.05315*%
%ADD25C,0.05315*%
%ADD26R,0.03937X0.01772*%
%ADD27R,0.04134X0.03543*%
%ADD28R,0.03346X0.03740*%
%ADD29R,0.02362X0.03937*%
%ADD30R,0.01772X0.03937*%
%ADD31R,0.05315X0.01575*%
%ADD32R,0.07480X0.07087*%
%ADD33R,0.07480X0.06201*%
%ADD34C,0.07677*%
%ADD35R,0.05512X0.04331*%
%ADD36C,0.00787*%
%ADD37C,0.02387*%
%ADD38C,0.01200*%
%ADD39C,0.01600*%
%ADD40C,0.00591*%
%ADD41C,0.02400*%
D10*
X0091993Y0064197D03*
D11*
X0102032Y0064000D03*
X0111874Y0064000D03*
X0122111Y0064000D03*
X0131953Y0064000D03*
X0081953Y0064000D03*
D12*
X0101480Y0091973D02*
X0101480Y0094295D01*
X0101480Y0091973D02*
X0100930Y0091973D01*
X0100930Y0094295D01*
X0101480Y0094295D01*
X0101480Y0092208D02*
X0100930Y0092208D01*
X0100930Y0092443D02*
X0101480Y0092443D01*
X0101480Y0092678D02*
X0100930Y0092678D01*
X0100930Y0092913D02*
X0101480Y0092913D01*
X0101480Y0093148D02*
X0100930Y0093148D01*
X0100930Y0093383D02*
X0101480Y0093383D01*
X0101480Y0093618D02*
X0100930Y0093618D01*
X0100930Y0093853D02*
X0101480Y0093853D01*
X0101480Y0094088D02*
X0100930Y0094088D01*
X0103055Y0094295D02*
X0103055Y0091973D01*
X0102505Y0091973D01*
X0102505Y0094295D01*
X0103055Y0094295D01*
X0103055Y0092208D02*
X0102505Y0092208D01*
X0102505Y0092443D02*
X0103055Y0092443D01*
X0103055Y0092678D02*
X0102505Y0092678D01*
X0102505Y0092913D02*
X0103055Y0092913D01*
X0103055Y0093148D02*
X0102505Y0093148D01*
X0102505Y0093383D02*
X0103055Y0093383D01*
X0103055Y0093618D02*
X0102505Y0093618D01*
X0102505Y0093853D02*
X0103055Y0093853D01*
X0103055Y0094088D02*
X0102505Y0094088D01*
X0104630Y0094295D02*
X0104630Y0091973D01*
X0104080Y0091973D01*
X0104080Y0094295D01*
X0104630Y0094295D01*
X0104630Y0092208D02*
X0104080Y0092208D01*
X0104080Y0092443D02*
X0104630Y0092443D01*
X0104630Y0092678D02*
X0104080Y0092678D01*
X0104080Y0092913D02*
X0104630Y0092913D01*
X0104630Y0093148D02*
X0104080Y0093148D01*
X0104080Y0093383D02*
X0104630Y0093383D01*
X0104630Y0093618D02*
X0104080Y0093618D01*
X0104080Y0093853D02*
X0104630Y0093853D01*
X0104630Y0094088D02*
X0104080Y0094088D01*
X0106205Y0094295D02*
X0106205Y0091973D01*
X0105655Y0091973D01*
X0105655Y0094295D01*
X0106205Y0094295D01*
X0106205Y0092208D02*
X0105655Y0092208D01*
X0105655Y0092443D02*
X0106205Y0092443D01*
X0106205Y0092678D02*
X0105655Y0092678D01*
X0105655Y0092913D02*
X0106205Y0092913D01*
X0106205Y0093148D02*
X0105655Y0093148D01*
X0105655Y0093383D02*
X0106205Y0093383D01*
X0106205Y0093618D02*
X0105655Y0093618D01*
X0105655Y0093853D02*
X0106205Y0093853D01*
X0106205Y0094088D02*
X0105655Y0094088D01*
X0107779Y0094295D02*
X0107779Y0091973D01*
X0107229Y0091973D01*
X0107229Y0094295D01*
X0107779Y0094295D01*
X0107779Y0092208D02*
X0107229Y0092208D01*
X0107229Y0092443D02*
X0107779Y0092443D01*
X0107779Y0092678D02*
X0107229Y0092678D01*
X0107229Y0092913D02*
X0107779Y0092913D01*
X0107779Y0093148D02*
X0107229Y0093148D01*
X0107229Y0093383D02*
X0107779Y0093383D01*
X0107779Y0093618D02*
X0107229Y0093618D01*
X0107229Y0093853D02*
X0107779Y0093853D01*
X0107779Y0094088D02*
X0107229Y0094088D01*
X0109354Y0094295D02*
X0109354Y0091973D01*
X0108804Y0091973D01*
X0108804Y0094295D01*
X0109354Y0094295D01*
X0109354Y0092208D02*
X0108804Y0092208D01*
X0108804Y0092443D02*
X0109354Y0092443D01*
X0109354Y0092678D02*
X0108804Y0092678D01*
X0108804Y0092913D02*
X0109354Y0092913D01*
X0109354Y0093148D02*
X0108804Y0093148D01*
X0108804Y0093383D02*
X0109354Y0093383D01*
X0109354Y0093618D02*
X0108804Y0093618D01*
X0108804Y0093853D02*
X0109354Y0093853D01*
X0109354Y0094088D02*
X0108804Y0094088D01*
X0110929Y0094295D02*
X0110929Y0091973D01*
X0110379Y0091973D01*
X0110379Y0094295D01*
X0110929Y0094295D01*
X0110929Y0092208D02*
X0110379Y0092208D01*
X0110379Y0092443D02*
X0110929Y0092443D01*
X0110929Y0092678D02*
X0110379Y0092678D01*
X0110379Y0092913D02*
X0110929Y0092913D01*
X0110929Y0093148D02*
X0110379Y0093148D01*
X0110379Y0093383D02*
X0110929Y0093383D01*
X0110929Y0093618D02*
X0110379Y0093618D01*
X0110379Y0093853D02*
X0110929Y0093853D01*
X0110929Y0094088D02*
X0110379Y0094088D01*
X0112504Y0094295D02*
X0112504Y0091973D01*
X0111954Y0091973D01*
X0111954Y0094295D01*
X0112504Y0094295D01*
X0112504Y0092208D02*
X0111954Y0092208D01*
X0111954Y0092443D02*
X0112504Y0092443D01*
X0112504Y0092678D02*
X0111954Y0092678D01*
X0111954Y0092913D02*
X0112504Y0092913D01*
X0112504Y0093148D02*
X0111954Y0093148D01*
X0111954Y0093383D02*
X0112504Y0093383D01*
X0112504Y0093618D02*
X0111954Y0093618D01*
X0111954Y0093853D02*
X0112504Y0093853D01*
X0112504Y0094088D02*
X0111954Y0094088D01*
X0114079Y0094295D02*
X0114079Y0091973D01*
X0113529Y0091973D01*
X0113529Y0094295D01*
X0114079Y0094295D01*
X0114079Y0092208D02*
X0113529Y0092208D01*
X0113529Y0092443D02*
X0114079Y0092443D01*
X0114079Y0092678D02*
X0113529Y0092678D01*
X0113529Y0092913D02*
X0114079Y0092913D01*
X0114079Y0093148D02*
X0113529Y0093148D01*
X0113529Y0093383D02*
X0114079Y0093383D01*
X0114079Y0093618D02*
X0113529Y0093618D01*
X0113529Y0093853D02*
X0114079Y0093853D01*
X0114079Y0094088D02*
X0113529Y0094088D01*
X0115653Y0094295D02*
X0115653Y0091973D01*
X0115103Y0091973D01*
X0115103Y0094295D01*
X0115653Y0094295D01*
X0115653Y0092208D02*
X0115103Y0092208D01*
X0115103Y0092443D02*
X0115653Y0092443D01*
X0115653Y0092678D02*
X0115103Y0092678D01*
X0115103Y0092913D02*
X0115653Y0092913D01*
X0115653Y0093148D02*
X0115103Y0093148D01*
X0115103Y0093383D02*
X0115653Y0093383D01*
X0115653Y0093618D02*
X0115103Y0093618D01*
X0115103Y0093853D02*
X0115653Y0093853D01*
X0115653Y0094088D02*
X0115103Y0094088D01*
X0117228Y0094295D02*
X0117228Y0091973D01*
X0116678Y0091973D01*
X0116678Y0094295D01*
X0117228Y0094295D01*
X0117228Y0092208D02*
X0116678Y0092208D01*
X0116678Y0092443D02*
X0117228Y0092443D01*
X0117228Y0092678D02*
X0116678Y0092678D01*
X0116678Y0092913D02*
X0117228Y0092913D01*
X0117228Y0093148D02*
X0116678Y0093148D01*
X0116678Y0093383D02*
X0117228Y0093383D01*
X0117228Y0093618D02*
X0116678Y0093618D01*
X0116678Y0093853D02*
X0117228Y0093853D01*
X0117228Y0094088D02*
X0116678Y0094088D01*
X0118803Y0094295D02*
X0118803Y0091973D01*
X0118253Y0091973D01*
X0118253Y0094295D01*
X0118803Y0094295D01*
X0118803Y0092208D02*
X0118253Y0092208D01*
X0118253Y0092443D02*
X0118803Y0092443D01*
X0118803Y0092678D02*
X0118253Y0092678D01*
X0118253Y0092913D02*
X0118803Y0092913D01*
X0118803Y0093148D02*
X0118253Y0093148D01*
X0118253Y0093383D02*
X0118803Y0093383D01*
X0118803Y0093618D02*
X0118253Y0093618D01*
X0118253Y0093853D02*
X0118803Y0093853D01*
X0118803Y0094088D02*
X0118253Y0094088D01*
X0120517Y0096559D02*
X0122839Y0096559D01*
X0122839Y0096009D01*
X0120517Y0096009D01*
X0120517Y0096559D01*
X0120517Y0096244D02*
X0122839Y0096244D01*
X0122839Y0096479D02*
X0120517Y0096479D01*
X0120517Y0098134D02*
X0122839Y0098134D01*
X0122839Y0097584D01*
X0120517Y0097584D01*
X0120517Y0098134D01*
X0120517Y0097819D02*
X0122839Y0097819D01*
X0122839Y0098054D02*
X0120517Y0098054D01*
X0120517Y0099709D02*
X0122839Y0099709D01*
X0122839Y0099159D01*
X0120517Y0099159D01*
X0120517Y0099709D01*
X0120517Y0099394D02*
X0122839Y0099394D01*
X0122839Y0099629D02*
X0120517Y0099629D01*
X0120517Y0101283D02*
X0122839Y0101283D01*
X0122839Y0100733D01*
X0120517Y0100733D01*
X0120517Y0101283D01*
X0120517Y0100968D02*
X0122839Y0100968D01*
X0122839Y0101203D02*
X0120517Y0101203D01*
X0120517Y0102858D02*
X0122839Y0102858D01*
X0122839Y0102308D01*
X0120517Y0102308D01*
X0120517Y0102858D01*
X0120517Y0102543D02*
X0122839Y0102543D01*
X0122839Y0102778D02*
X0120517Y0102778D01*
X0120517Y0104433D02*
X0122839Y0104433D01*
X0122839Y0103883D01*
X0120517Y0103883D01*
X0120517Y0104433D01*
X0120517Y0104118D02*
X0122839Y0104118D01*
X0122839Y0104353D02*
X0120517Y0104353D01*
X0120517Y0106008D02*
X0122839Y0106008D01*
X0122839Y0105458D01*
X0120517Y0105458D01*
X0120517Y0106008D01*
X0120517Y0105693D02*
X0122839Y0105693D01*
X0122839Y0105928D02*
X0120517Y0105928D01*
X0120517Y0107583D02*
X0122839Y0107583D01*
X0122839Y0107033D01*
X0120517Y0107033D01*
X0120517Y0107583D01*
X0120517Y0107268D02*
X0122839Y0107268D01*
X0122839Y0107503D02*
X0120517Y0107503D01*
X0120517Y0109157D02*
X0122839Y0109157D01*
X0122839Y0108607D01*
X0120517Y0108607D01*
X0120517Y0109157D01*
X0120517Y0108842D02*
X0122839Y0108842D01*
X0122839Y0109077D02*
X0120517Y0109077D01*
X0120517Y0110732D02*
X0122839Y0110732D01*
X0122839Y0110182D01*
X0120517Y0110182D01*
X0120517Y0110732D01*
X0120517Y0110417D02*
X0122839Y0110417D01*
X0122839Y0110652D02*
X0120517Y0110652D01*
X0120517Y0112307D02*
X0122839Y0112307D01*
X0122839Y0111757D01*
X0120517Y0111757D01*
X0120517Y0112307D01*
X0120517Y0111992D02*
X0122839Y0111992D01*
X0122839Y0112227D02*
X0120517Y0112227D01*
X0120517Y0113882D02*
X0122839Y0113882D01*
X0122839Y0113332D01*
X0120517Y0113332D01*
X0120517Y0113882D01*
X0120517Y0113567D02*
X0122839Y0113567D01*
X0122839Y0113802D02*
X0120517Y0113802D01*
X0118253Y0115595D02*
X0118253Y0117917D01*
X0118803Y0117917D01*
X0118803Y0115595D01*
X0118253Y0115595D01*
X0118253Y0115830D02*
X0118803Y0115830D01*
X0118803Y0116065D02*
X0118253Y0116065D01*
X0118253Y0116300D02*
X0118803Y0116300D01*
X0118803Y0116535D02*
X0118253Y0116535D01*
X0118253Y0116770D02*
X0118803Y0116770D01*
X0118803Y0117005D02*
X0118253Y0117005D01*
X0118253Y0117240D02*
X0118803Y0117240D01*
X0118803Y0117475D02*
X0118253Y0117475D01*
X0118253Y0117710D02*
X0118803Y0117710D01*
X0116678Y0117917D02*
X0116678Y0115595D01*
X0116678Y0117917D02*
X0117228Y0117917D01*
X0117228Y0115595D01*
X0116678Y0115595D01*
X0116678Y0115830D02*
X0117228Y0115830D01*
X0117228Y0116065D02*
X0116678Y0116065D01*
X0116678Y0116300D02*
X0117228Y0116300D01*
X0117228Y0116535D02*
X0116678Y0116535D01*
X0116678Y0116770D02*
X0117228Y0116770D01*
X0117228Y0117005D02*
X0116678Y0117005D01*
X0116678Y0117240D02*
X0117228Y0117240D01*
X0117228Y0117475D02*
X0116678Y0117475D01*
X0116678Y0117710D02*
X0117228Y0117710D01*
X0115103Y0117917D02*
X0115103Y0115595D01*
X0115103Y0117917D02*
X0115653Y0117917D01*
X0115653Y0115595D01*
X0115103Y0115595D01*
X0115103Y0115830D02*
X0115653Y0115830D01*
X0115653Y0116065D02*
X0115103Y0116065D01*
X0115103Y0116300D02*
X0115653Y0116300D01*
X0115653Y0116535D02*
X0115103Y0116535D01*
X0115103Y0116770D02*
X0115653Y0116770D01*
X0115653Y0117005D02*
X0115103Y0117005D01*
X0115103Y0117240D02*
X0115653Y0117240D01*
X0115653Y0117475D02*
X0115103Y0117475D01*
X0115103Y0117710D02*
X0115653Y0117710D01*
X0113529Y0117917D02*
X0113529Y0115595D01*
X0113529Y0117917D02*
X0114079Y0117917D01*
X0114079Y0115595D01*
X0113529Y0115595D01*
X0113529Y0115830D02*
X0114079Y0115830D01*
X0114079Y0116065D02*
X0113529Y0116065D01*
X0113529Y0116300D02*
X0114079Y0116300D01*
X0114079Y0116535D02*
X0113529Y0116535D01*
X0113529Y0116770D02*
X0114079Y0116770D01*
X0114079Y0117005D02*
X0113529Y0117005D01*
X0113529Y0117240D02*
X0114079Y0117240D01*
X0114079Y0117475D02*
X0113529Y0117475D01*
X0113529Y0117710D02*
X0114079Y0117710D01*
X0111954Y0117917D02*
X0111954Y0115595D01*
X0111954Y0117917D02*
X0112504Y0117917D01*
X0112504Y0115595D01*
X0111954Y0115595D01*
X0111954Y0115830D02*
X0112504Y0115830D01*
X0112504Y0116065D02*
X0111954Y0116065D01*
X0111954Y0116300D02*
X0112504Y0116300D01*
X0112504Y0116535D02*
X0111954Y0116535D01*
X0111954Y0116770D02*
X0112504Y0116770D01*
X0112504Y0117005D02*
X0111954Y0117005D01*
X0111954Y0117240D02*
X0112504Y0117240D01*
X0112504Y0117475D02*
X0111954Y0117475D01*
X0111954Y0117710D02*
X0112504Y0117710D01*
X0110379Y0117917D02*
X0110379Y0115595D01*
X0110379Y0117917D02*
X0110929Y0117917D01*
X0110929Y0115595D01*
X0110379Y0115595D01*
X0110379Y0115830D02*
X0110929Y0115830D01*
X0110929Y0116065D02*
X0110379Y0116065D01*
X0110379Y0116300D02*
X0110929Y0116300D01*
X0110929Y0116535D02*
X0110379Y0116535D01*
X0110379Y0116770D02*
X0110929Y0116770D01*
X0110929Y0117005D02*
X0110379Y0117005D01*
X0110379Y0117240D02*
X0110929Y0117240D01*
X0110929Y0117475D02*
X0110379Y0117475D01*
X0110379Y0117710D02*
X0110929Y0117710D01*
X0108804Y0117917D02*
X0108804Y0115595D01*
X0108804Y0117917D02*
X0109354Y0117917D01*
X0109354Y0115595D01*
X0108804Y0115595D01*
X0108804Y0115830D02*
X0109354Y0115830D01*
X0109354Y0116065D02*
X0108804Y0116065D01*
X0108804Y0116300D02*
X0109354Y0116300D01*
X0109354Y0116535D02*
X0108804Y0116535D01*
X0108804Y0116770D02*
X0109354Y0116770D01*
X0109354Y0117005D02*
X0108804Y0117005D01*
X0108804Y0117240D02*
X0109354Y0117240D01*
X0109354Y0117475D02*
X0108804Y0117475D01*
X0108804Y0117710D02*
X0109354Y0117710D01*
X0107229Y0117917D02*
X0107229Y0115595D01*
X0107229Y0117917D02*
X0107779Y0117917D01*
X0107779Y0115595D01*
X0107229Y0115595D01*
X0107229Y0115830D02*
X0107779Y0115830D01*
X0107779Y0116065D02*
X0107229Y0116065D01*
X0107229Y0116300D02*
X0107779Y0116300D01*
X0107779Y0116535D02*
X0107229Y0116535D01*
X0107229Y0116770D02*
X0107779Y0116770D01*
X0107779Y0117005D02*
X0107229Y0117005D01*
X0107229Y0117240D02*
X0107779Y0117240D01*
X0107779Y0117475D02*
X0107229Y0117475D01*
X0107229Y0117710D02*
X0107779Y0117710D01*
X0105655Y0117917D02*
X0105655Y0115595D01*
X0105655Y0117917D02*
X0106205Y0117917D01*
X0106205Y0115595D01*
X0105655Y0115595D01*
X0105655Y0115830D02*
X0106205Y0115830D01*
X0106205Y0116065D02*
X0105655Y0116065D01*
X0105655Y0116300D02*
X0106205Y0116300D01*
X0106205Y0116535D02*
X0105655Y0116535D01*
X0105655Y0116770D02*
X0106205Y0116770D01*
X0106205Y0117005D02*
X0105655Y0117005D01*
X0105655Y0117240D02*
X0106205Y0117240D01*
X0106205Y0117475D02*
X0105655Y0117475D01*
X0105655Y0117710D02*
X0106205Y0117710D01*
X0104080Y0117917D02*
X0104080Y0115595D01*
X0104080Y0117917D02*
X0104630Y0117917D01*
X0104630Y0115595D01*
X0104080Y0115595D01*
X0104080Y0115830D02*
X0104630Y0115830D01*
X0104630Y0116065D02*
X0104080Y0116065D01*
X0104080Y0116300D02*
X0104630Y0116300D01*
X0104630Y0116535D02*
X0104080Y0116535D01*
X0104080Y0116770D02*
X0104630Y0116770D01*
X0104630Y0117005D02*
X0104080Y0117005D01*
X0104080Y0117240D02*
X0104630Y0117240D01*
X0104630Y0117475D02*
X0104080Y0117475D01*
X0104080Y0117710D02*
X0104630Y0117710D01*
X0102505Y0117917D02*
X0102505Y0115595D01*
X0102505Y0117917D02*
X0103055Y0117917D01*
X0103055Y0115595D01*
X0102505Y0115595D01*
X0102505Y0115830D02*
X0103055Y0115830D01*
X0103055Y0116065D02*
X0102505Y0116065D01*
X0102505Y0116300D02*
X0103055Y0116300D01*
X0103055Y0116535D02*
X0102505Y0116535D01*
X0102505Y0116770D02*
X0103055Y0116770D01*
X0103055Y0117005D02*
X0102505Y0117005D01*
X0102505Y0117240D02*
X0103055Y0117240D01*
X0103055Y0117475D02*
X0102505Y0117475D01*
X0102505Y0117710D02*
X0103055Y0117710D01*
X0100930Y0117917D02*
X0100930Y0115595D01*
X0100930Y0117917D02*
X0101480Y0117917D01*
X0101480Y0115595D01*
X0100930Y0115595D01*
X0100930Y0115830D02*
X0101480Y0115830D01*
X0101480Y0116065D02*
X0100930Y0116065D01*
X0100930Y0116300D02*
X0101480Y0116300D01*
X0101480Y0116535D02*
X0100930Y0116535D01*
X0100930Y0116770D02*
X0101480Y0116770D01*
X0101480Y0117005D02*
X0100930Y0117005D01*
X0100930Y0117240D02*
X0101480Y0117240D01*
X0101480Y0117475D02*
X0100930Y0117475D01*
X0100930Y0117710D02*
X0101480Y0117710D01*
X0099217Y0113332D02*
X0096895Y0113332D01*
X0096895Y0113882D01*
X0099217Y0113882D01*
X0099217Y0113332D01*
X0099217Y0113567D02*
X0096895Y0113567D01*
X0096895Y0113802D02*
X0099217Y0113802D01*
X0099217Y0111757D02*
X0096895Y0111757D01*
X0096895Y0112307D01*
X0099217Y0112307D01*
X0099217Y0111757D01*
X0099217Y0111992D02*
X0096895Y0111992D01*
X0096895Y0112227D02*
X0099217Y0112227D01*
X0099217Y0110182D02*
X0096895Y0110182D01*
X0096895Y0110732D01*
X0099217Y0110732D01*
X0099217Y0110182D01*
X0099217Y0110417D02*
X0096895Y0110417D01*
X0096895Y0110652D02*
X0099217Y0110652D01*
X0099217Y0108607D02*
X0096895Y0108607D01*
X0096895Y0109157D01*
X0099217Y0109157D01*
X0099217Y0108607D01*
X0099217Y0108842D02*
X0096895Y0108842D01*
X0096895Y0109077D02*
X0099217Y0109077D01*
X0099217Y0107033D02*
X0096895Y0107033D01*
X0096895Y0107583D01*
X0099217Y0107583D01*
X0099217Y0107033D01*
X0099217Y0107268D02*
X0096895Y0107268D01*
X0096895Y0107503D02*
X0099217Y0107503D01*
X0099217Y0105458D02*
X0096895Y0105458D01*
X0096895Y0106008D01*
X0099217Y0106008D01*
X0099217Y0105458D01*
X0099217Y0105693D02*
X0096895Y0105693D01*
X0096895Y0105928D02*
X0099217Y0105928D01*
X0099217Y0103883D02*
X0096895Y0103883D01*
X0096895Y0104433D01*
X0099217Y0104433D01*
X0099217Y0103883D01*
X0099217Y0104118D02*
X0096895Y0104118D01*
X0096895Y0104353D02*
X0099217Y0104353D01*
X0099217Y0102308D02*
X0096895Y0102308D01*
X0096895Y0102858D01*
X0099217Y0102858D01*
X0099217Y0102308D01*
X0099217Y0102543D02*
X0096895Y0102543D01*
X0096895Y0102778D02*
X0099217Y0102778D01*
X0099217Y0100733D02*
X0096895Y0100733D01*
X0096895Y0101283D01*
X0099217Y0101283D01*
X0099217Y0100733D01*
X0099217Y0100968D02*
X0096895Y0100968D01*
X0096895Y0101203D02*
X0099217Y0101203D01*
X0099217Y0099159D02*
X0096895Y0099159D01*
X0096895Y0099709D01*
X0099217Y0099709D01*
X0099217Y0099159D01*
X0099217Y0099394D02*
X0096895Y0099394D01*
X0096895Y0099629D02*
X0099217Y0099629D01*
X0099217Y0097584D02*
X0096895Y0097584D01*
X0096895Y0098134D01*
X0099217Y0098134D01*
X0099217Y0097584D01*
X0099217Y0097819D02*
X0096895Y0097819D01*
X0096895Y0098054D02*
X0099217Y0098054D01*
X0099217Y0096009D02*
X0096895Y0096009D01*
X0096895Y0096559D01*
X0099217Y0096559D01*
X0099217Y0096009D01*
X0099217Y0096244D02*
X0096895Y0096244D01*
X0096895Y0096479D02*
X0099217Y0096479D01*
D13*
X0109867Y0104945D03*
D14*
X0107504Y0102583D03*
X0102780Y0102583D03*
X0102780Y0097859D03*
X0107504Y0097859D03*
X0112229Y0097859D03*
X0112229Y0102583D03*
X0116953Y0102583D03*
X0116953Y0097859D03*
X0116953Y0107308D03*
X0116953Y0112032D03*
X0112229Y0112032D03*
X0112229Y0107308D03*
X0107504Y0107308D03*
X0107504Y0112032D03*
X0102780Y0112032D03*
X0102780Y0107308D03*
D15*
X0141363Y0098843D02*
X0157111Y0098843D01*
X0157111Y0106717D01*
X0145300Y0106717D01*
X0145300Y0114591D01*
X0157111Y0114591D01*
X0157111Y0122465D01*
X0145300Y0122465D01*
X0145300Y0130339D01*
X0157111Y0130339D01*
X0157111Y0138213D01*
X0145300Y0138213D01*
D16*
X0141363Y0098843D03*
D17*
X0138804Y0101205D03*
X0134473Y0101205D03*
X0130339Y0102780D03*
X0130339Y0107111D03*
X0130733Y0111245D03*
X0130772Y0115024D03*
X0135103Y0115024D03*
X0135063Y0111245D03*
X0123489Y0126008D03*
X0123489Y0130339D03*
X0119552Y0130339D03*
X0119552Y0126008D03*
X0128213Y0130103D03*
X0132544Y0130103D03*
X0108922Y0133331D03*
X0108922Y0137662D03*
X0092386Y0137662D03*
X0092386Y0133331D03*
X0088016Y0133292D03*
X0083686Y0133292D03*
X0083686Y0137623D03*
X0088016Y0137623D03*
X0060103Y0124827D03*
X0060103Y0120497D03*
X0085103Y0094906D03*
X0089434Y0094906D03*
X0064040Y0073843D03*
X0064040Y0069512D03*
X0132150Y0072465D03*
X0132150Y0076796D03*
D18*
X0114040Y0126835D03*
X0114040Y0133134D03*
X0103804Y0129985D03*
X0103804Y0136284D03*
X0097701Y0132741D03*
X0097701Y0126441D03*
X0066008Y0125418D03*
X0066008Y0119119D03*
X0138056Y0128567D03*
X0138056Y0134867D03*
D19*
X0088056Y0126441D03*
X0078213Y0126441D03*
D20*
X0078764Y0113331D03*
X0076796Y0113331D03*
X0080733Y0113331D03*
X0082701Y0113331D03*
X0084670Y0113331D03*
X0084670Y0101914D03*
X0082701Y0101914D03*
X0080733Y0101914D03*
X0078764Y0101914D03*
X0076796Y0101914D03*
D21*
X0075024Y0105654D03*
X0075024Y0107623D03*
X0075024Y0109591D03*
X0086441Y0109591D03*
X0086441Y0107623D03*
X0086441Y0105654D03*
D22*
X0081993Y0061717D03*
D23*
X0091993Y0061717D03*
X0101993Y0061717D03*
X0111993Y0061717D03*
X0121993Y0061717D03*
X0131993Y0061717D03*
D24*
X0072741Y0135378D03*
D25*
X0064867Y0135378D03*
D26*
X0096993Y0085536D03*
X0096993Y0080536D03*
X0096993Y0075536D03*
X0096993Y0070536D03*
X0124945Y0070536D03*
X0124945Y0075536D03*
X0124945Y0080536D03*
X0124945Y0085536D03*
D27*
X0123882Y0135260D03*
X0130182Y0135260D03*
D28*
X0128311Y0125516D03*
X0132839Y0125516D03*
X0132839Y0119808D03*
X0128311Y0119808D03*
D29*
X0085890Y0088016D03*
X0071323Y0088016D03*
X0071323Y0070693D03*
X0085890Y0070693D03*
D30*
X0088548Y0079355D03*
X0068666Y0079355D03*
D31*
X0059591Y0096284D03*
X0059591Y0098843D03*
X0059591Y0101402D03*
X0059591Y0103961D03*
X0059591Y0106520D03*
D32*
X0048567Y0105930D03*
X0048567Y0096874D03*
D33*
X0048567Y0088065D03*
X0048567Y0114739D03*
D34*
X0048567Y0117839D03*
X0048567Y0084965D03*
D35*
X0060378Y0091855D03*
X0060398Y0110930D03*
D36*
X0054222Y0064172D02*
X0052857Y0063607D01*
X0061887Y0063607D01*
X0061845Y0063648D01*
X0059089Y0066404D01*
X0059089Y0073014D01*
X0060144Y0074069D01*
X0061719Y0075644D01*
X0061780Y0075644D01*
X0062361Y0076225D01*
X0065718Y0076225D01*
X0066422Y0075521D01*
X0066422Y0072164D01*
X0065935Y0071678D01*
X0066422Y0071191D01*
X0066422Y0068557D01*
X0068964Y0068557D01*
X0068961Y0068569D01*
X0068961Y0070497D01*
X0071126Y0070497D01*
X0071126Y0070890D01*
X0068961Y0070890D01*
X0068961Y0072817D01*
X0069042Y0073118D01*
X0069197Y0073387D01*
X0069417Y0073607D01*
X0069686Y0073762D01*
X0069987Y0073843D01*
X0071126Y0073843D01*
X0071126Y0070890D01*
X0071520Y0070890D01*
X0073685Y0070890D01*
X0073685Y0072817D01*
X0073605Y0073118D01*
X0073450Y0073387D01*
X0073230Y0073607D01*
X0072960Y0073762D01*
X0072660Y0073843D01*
X0071520Y0073843D01*
X0071520Y0070890D01*
X0071520Y0070497D01*
X0073685Y0070497D01*
X0073685Y0068569D01*
X0073682Y0068557D01*
X0074520Y0068557D01*
X0076412Y0071261D01*
X0076412Y0071439D01*
X0076828Y0071855D01*
X0073685Y0071855D01*
X0073685Y0071069D02*
X0076278Y0071069D01*
X0075728Y0070283D02*
X0073685Y0070283D01*
X0073685Y0069497D02*
X0075178Y0069497D01*
X0074628Y0068711D02*
X0073685Y0068711D01*
X0071520Y0071069D02*
X0071126Y0071069D01*
X0071126Y0071855D02*
X0071520Y0071855D01*
X0071520Y0072641D02*
X0071126Y0072641D01*
X0071126Y0073427D02*
X0071520Y0073427D01*
X0073410Y0073427D02*
X0083776Y0073427D01*
X0083508Y0073159D02*
X0083508Y0072494D01*
X0078781Y0072494D01*
X0078635Y0072596D01*
X0078055Y0072494D01*
X0077467Y0072494D01*
X0077341Y0072368D01*
X0077166Y0072337D01*
X0076828Y0071855D01*
X0079151Y0068893D02*
X0083508Y0068893D01*
X0083508Y0068227D01*
X0084212Y0067524D01*
X0087569Y0067524D01*
X0088272Y0068227D01*
X0088272Y0073159D01*
X0087691Y0073740D01*
X0087691Y0076205D01*
X0088498Y0076205D01*
X0088498Y0079305D01*
X0088597Y0079305D01*
X0088597Y0076205D01*
X0089589Y0076205D01*
X0089889Y0076286D01*
X0090159Y0076441D01*
X0090379Y0076661D01*
X0090534Y0076930D01*
X0090615Y0077231D01*
X0090615Y0079306D01*
X0088597Y0079306D01*
X0088597Y0079404D01*
X0090615Y0079404D01*
X0090615Y0081479D01*
X0090534Y0081779D01*
X0090379Y0082049D01*
X0090159Y0082268D01*
X0089889Y0082424D01*
X0089589Y0082504D01*
X0088597Y0082504D01*
X0088597Y0079404D01*
X0088498Y0079404D01*
X0088498Y0082504D01*
X0087691Y0082504D01*
X0087691Y0084969D01*
X0088272Y0085550D01*
X0088272Y0090482D01*
X0087888Y0090866D01*
X0087888Y0091518D01*
X0086904Y0092502D01*
X0086904Y0092646D01*
X0087268Y0093011D01*
X0087755Y0092524D01*
X0091112Y0092524D01*
X0091815Y0093227D01*
X0091815Y0093508D01*
X0092576Y0093508D01*
X0091373Y0092305D01*
X0091373Y0075066D01*
X0092428Y0074011D01*
X0092703Y0073735D01*
X0094241Y0073735D01*
X0094527Y0073449D01*
X0099458Y0073449D01*
X0099626Y0073617D01*
X0101037Y0073617D01*
X0101266Y0073388D01*
X0102146Y0073023D01*
X0103099Y0073023D01*
X0103979Y0073388D01*
X0104335Y0073744D01*
X0104335Y0072238D01*
X0106934Y0069639D01*
X0107868Y0068705D01*
X0122224Y0068705D01*
X0122479Y0068449D01*
X0127411Y0068449D01*
X0128115Y0069153D01*
X0128115Y0071919D01*
X0127411Y0072623D01*
X0122479Y0072623D01*
X0121776Y0071919D01*
X0121776Y0071894D01*
X0120251Y0071894D01*
X0122143Y0073786D01*
X0122479Y0073449D01*
X0127411Y0073449D01*
X0128115Y0074153D01*
X0128115Y0076919D01*
X0127411Y0077623D01*
X0122479Y0077623D01*
X0121869Y0077012D01*
X0120860Y0077012D01*
X0119978Y0076130D01*
X0119978Y0076288D01*
X0119613Y0077168D01*
X0118940Y0077841D01*
X0118059Y0078206D01*
X0117107Y0078206D01*
X0116227Y0077841D01*
X0115998Y0077612D01*
X0110910Y0077612D01*
X0110910Y0080624D01*
X0111201Y0080504D01*
X0111525Y0080504D01*
X0112239Y0079790D01*
X0113294Y0078735D01*
X0122194Y0078735D01*
X0122479Y0078449D01*
X0127411Y0078449D01*
X0127681Y0078719D01*
X0129768Y0076631D01*
X0129768Y0075117D01*
X0130255Y0074630D01*
X0129768Y0074144D01*
X0129768Y0070787D01*
X0130349Y0070205D01*
X0130349Y0067170D01*
X0128109Y0067170D01*
X0127406Y0066466D01*
X0127406Y0063607D01*
X0126658Y0063607D01*
X0126658Y0066466D01*
X0125955Y0067170D01*
X0118267Y0067170D01*
X0117563Y0066466D01*
X0117563Y0063607D01*
X0116422Y0063607D01*
X0116422Y0066466D01*
X0115718Y0067170D01*
X0108031Y0067170D01*
X0107327Y0066466D01*
X0107327Y0063607D01*
X0106579Y0063607D01*
X0106579Y0066466D01*
X0105876Y0067170D01*
X0098188Y0067170D01*
X0097485Y0066466D01*
X0097485Y0063607D01*
X0096343Y0063607D01*
X0096343Y0066466D01*
X0095640Y0067170D01*
X0088346Y0067170D01*
X0087642Y0066466D01*
X0087642Y0063607D01*
X0086500Y0063607D01*
X0086500Y0066466D01*
X0085797Y0067170D01*
X0078109Y0067170D01*
X0077560Y0066621D01*
X0079151Y0068893D01*
X0079024Y0068711D02*
X0083508Y0068711D01*
X0083810Y0067926D02*
X0078474Y0067926D01*
X0078079Y0067140D02*
X0077924Y0067140D01*
X0073685Y0072641D02*
X0083508Y0072641D01*
X0083508Y0073159D02*
X0084089Y0073740D01*
X0084089Y0084969D01*
X0083508Y0085550D01*
X0083508Y0090482D01*
X0083669Y0090643D01*
X0083302Y0091010D01*
X0083302Y0092646D01*
X0082721Y0093227D01*
X0082721Y0096584D01*
X0082969Y0096832D01*
X0082041Y0097760D01*
X0081107Y0098694D01*
X0081107Y0099138D01*
X0075806Y0099138D01*
X0075103Y0099842D01*
X0075103Y0100024D01*
X0074845Y0099766D01*
X0073965Y0099401D01*
X0073012Y0099401D01*
X0072132Y0099766D01*
X0071697Y0100201D01*
X0071647Y0100201D01*
X0070713Y0101135D01*
X0069138Y0102710D01*
X0069138Y0108755D01*
X0071457Y0111074D01*
X0071094Y0111949D01*
X0071094Y0112902D01*
X0071459Y0113782D01*
X0072132Y0114456D01*
X0073012Y0114820D01*
X0073965Y0114820D01*
X0074845Y0114456D01*
X0075103Y0114198D01*
X0075103Y0115403D01*
X0075806Y0116107D01*
X0077785Y0116107D01*
X0077871Y0116021D01*
X0078117Y0116087D01*
X0078764Y0116087D01*
X0078764Y0113331D01*
X0078764Y0113331D01*
X0078764Y0110575D01*
X0078117Y0110575D01*
X0077871Y0110641D01*
X0077800Y0110570D01*
X0077800Y0104689D01*
X0083666Y0104689D01*
X0083666Y0110570D01*
X0083595Y0110641D01*
X0083349Y0110575D01*
X0082701Y0110575D01*
X0082701Y0113331D01*
X0082701Y0113331D01*
X0082701Y0106874D01*
X0081953Y0106126D01*
X0083666Y0106435D02*
X0077800Y0106435D01*
X0077800Y0105649D02*
X0083666Y0105649D01*
X0083666Y0104863D02*
X0077800Y0104863D01*
X0077800Y0107221D02*
X0083666Y0107221D01*
X0083666Y0108007D02*
X0077800Y0108007D01*
X0077800Y0108793D02*
X0083666Y0108793D01*
X0083666Y0109579D02*
X0077800Y0109579D01*
X0077800Y0110365D02*
X0083666Y0110365D01*
X0082701Y0110575D02*
X0082701Y0113331D01*
X0082701Y0112723D02*
X0082701Y0112723D01*
X0082701Y0111937D02*
X0082701Y0111937D01*
X0082701Y0111151D02*
X0082701Y0111151D01*
X0082701Y0110575D02*
X0082054Y0110575D01*
X0081808Y0110641D01*
X0081722Y0110556D01*
X0079743Y0110556D01*
X0079658Y0110641D01*
X0079412Y0110575D01*
X0078764Y0110575D01*
X0078764Y0113331D01*
X0078764Y0109315D01*
X0079197Y0108882D01*
X0078764Y0111151D02*
X0078764Y0111151D01*
X0078764Y0111937D02*
X0078764Y0111937D01*
X0078764Y0112723D02*
X0078764Y0112723D01*
X0078764Y0113331D02*
X0078764Y0113331D01*
X0078764Y0116087D01*
X0079138Y0116087D01*
X0079138Y0116393D01*
X0080162Y0117417D01*
X0081096Y0118351D01*
X0084206Y0118351D01*
X0081490Y0121067D01*
X0080769Y0121788D01*
X0080679Y0121697D01*
X0078233Y0121697D01*
X0078274Y0121656D01*
X0078639Y0120776D01*
X0078639Y0119823D01*
X0078274Y0118943D01*
X0077601Y0118270D01*
X0076721Y0117905D01*
X0076397Y0117905D01*
X0075809Y0117318D01*
X0068981Y0117318D01*
X0068981Y0116554D01*
X0068277Y0115851D01*
X0067809Y0115851D01*
X0067809Y0107349D01*
X0066754Y0106294D01*
X0065179Y0104719D01*
X0063449Y0104719D01*
X0063449Y0097558D01*
X0063364Y0097473D01*
X0063430Y0097227D01*
X0063430Y0096284D01*
X0061360Y0096284D01*
X0061360Y0096284D01*
X0063430Y0096284D01*
X0063430Y0095341D01*
X0063397Y0095221D01*
X0063632Y0095221D01*
X0064335Y0094518D01*
X0064335Y0089192D01*
X0063632Y0088489D01*
X0057125Y0088489D01*
X0056422Y0089192D01*
X0056422Y0094428D01*
X0056208Y0094551D01*
X0055988Y0094771D01*
X0055833Y0095041D01*
X0055752Y0095341D01*
X0055752Y0096284D01*
X0059397Y0096284D01*
X0059397Y0096284D01*
X0055752Y0096284D01*
X0055752Y0097227D01*
X0055818Y0097473D01*
X0055733Y0097558D01*
X0055733Y0107805D01*
X0056436Y0108508D01*
X0056441Y0108508D01*
X0056441Y0113592D01*
X0057145Y0114296D01*
X0063651Y0114296D01*
X0064208Y0113740D01*
X0064208Y0115851D01*
X0063739Y0115851D01*
X0063036Y0116554D01*
X0063036Y0120597D01*
X0062485Y0120137D01*
X0062485Y0118818D01*
X0061781Y0118115D01*
X0058424Y0118115D01*
X0057721Y0118818D01*
X0057721Y0122175D01*
X0058208Y0122662D01*
X0057721Y0123149D01*
X0057721Y0126506D01*
X0058302Y0127087D01*
X0058302Y0127608D01*
X0058102Y0128091D01*
X0058102Y0129044D01*
X0058467Y0129924D01*
X0059140Y0130597D01*
X0060020Y0130962D01*
X0060973Y0130962D01*
X0061853Y0130597D01*
X0062526Y0129924D01*
X0062891Y0129044D01*
X0062891Y0128091D01*
X0062526Y0127211D01*
X0062153Y0126837D01*
X0062485Y0126506D01*
X0062485Y0124826D01*
X0063036Y0125285D01*
X0063036Y0127982D01*
X0063739Y0128685D01*
X0068277Y0128685D01*
X0068981Y0127982D01*
X0068981Y0122853D01*
X0068395Y0122268D01*
X0068981Y0121683D01*
X0068981Y0120919D01*
X0073909Y0120919D01*
X0074215Y0121656D01*
X0074888Y0122330D01*
X0075048Y0122396D01*
X0075044Y0122401D01*
X0075044Y0130482D01*
X0075747Y0131185D01*
X0080679Y0131185D01*
X0081382Y0130482D01*
X0081382Y0127800D01*
X0082091Y0127800D01*
X0082091Y0130910D01*
X0082007Y0130910D01*
X0081304Y0131613D01*
X0081304Y0134970D01*
X0081811Y0135478D01*
X0081779Y0135496D01*
X0081559Y0135716D01*
X0081404Y0135986D01*
X0081323Y0136286D01*
X0081323Y0137426D01*
X0083489Y0137426D01*
X0083489Y0137819D01*
X0081323Y0137819D01*
X0081323Y0138646D01*
X0076486Y0138646D01*
X0076599Y0138533D01*
X0076599Y0132224D01*
X0075895Y0131520D01*
X0069586Y0131520D01*
X0068882Y0132224D01*
X0068882Y0138533D01*
X0068995Y0138646D01*
X0066885Y0138646D01*
X0067314Y0138360D01*
X0067848Y0137825D01*
X0068268Y0137197D01*
X0068558Y0136498D01*
X0068702Y0135772D01*
X0065260Y0135772D01*
X0065260Y0134985D01*
X0065260Y0131543D01*
X0065986Y0131687D01*
X0066685Y0131977D01*
X0067314Y0132397D01*
X0067848Y0132931D01*
X0068268Y0133560D01*
X0068558Y0134259D01*
X0068702Y0134985D01*
X0065260Y0134985D01*
X0064473Y0134985D01*
X0061031Y0134985D01*
X0061176Y0134259D01*
X0061465Y0133560D01*
X0061885Y0132931D01*
X0062420Y0132397D01*
X0063048Y0131977D01*
X0063747Y0131687D01*
X0064473Y0131543D01*
X0064473Y0134985D01*
X0064473Y0135772D01*
X0061031Y0135772D01*
X0061176Y0136498D01*
X0061465Y0137197D01*
X0061885Y0137825D01*
X0062420Y0138360D01*
X0062848Y0138646D01*
X0052287Y0138646D01*
X0054222Y0137845D01*
X0055994Y0136073D01*
X0056953Y0133757D01*
X0056953Y0131251D01*
X0055994Y0128936D01*
X0054222Y0127164D01*
X0051907Y0126205D01*
X0049401Y0126205D01*
X0047086Y0127164D01*
X0045314Y0128936D01*
X0044748Y0130301D01*
X0044748Y0121147D01*
X0045713Y0122111D01*
X0047565Y0122878D01*
X0049570Y0122878D01*
X0051422Y0122111D01*
X0052840Y0120694D01*
X0053607Y0118841D01*
X0053607Y0116837D01*
X0053508Y0116599D01*
X0053508Y0111141D01*
X0052923Y0110556D01*
X0053508Y0109970D01*
X0053508Y0101889D01*
X0053021Y0101402D01*
X0053508Y0100915D01*
X0053508Y0092834D01*
X0052923Y0092248D01*
X0053508Y0091663D01*
X0053508Y0086205D01*
X0053607Y0085967D01*
X0053607Y0083963D01*
X0052840Y0082110D01*
X0051422Y0080693D01*
X0049570Y0079926D01*
X0047565Y0079926D01*
X0045713Y0080693D01*
X0044748Y0081657D01*
X0044748Y0071716D01*
X0045314Y0073080D01*
X0047086Y0074852D01*
X0049401Y0075811D01*
X0051907Y0075811D01*
X0054222Y0074852D01*
X0055994Y0073080D01*
X0056953Y0070765D01*
X0056953Y0068259D01*
X0055994Y0065944D01*
X0054222Y0064172D01*
X0053797Y0063996D02*
X0061498Y0063996D01*
X0060712Y0064782D02*
X0054832Y0064782D01*
X0055618Y0065568D02*
X0059926Y0065568D01*
X0059140Y0066354D02*
X0056164Y0066354D01*
X0056489Y0067140D02*
X0059089Y0067140D01*
X0059089Y0067926D02*
X0056815Y0067926D01*
X0056953Y0068711D02*
X0059089Y0068711D01*
X0059089Y0069497D02*
X0056953Y0069497D01*
X0056953Y0070283D02*
X0059089Y0070283D01*
X0059089Y0071069D02*
X0056827Y0071069D01*
X0056502Y0071855D02*
X0059089Y0071855D01*
X0059089Y0072641D02*
X0056176Y0072641D01*
X0055648Y0073427D02*
X0059502Y0073427D01*
X0060288Y0074213D02*
X0054862Y0074213D01*
X0053869Y0074999D02*
X0061074Y0074999D01*
X0061921Y0075785D02*
X0051972Y0075785D01*
X0049336Y0075785D02*
X0044748Y0075785D01*
X0044748Y0076571D02*
X0066925Y0076571D01*
X0066835Y0076661D02*
X0067055Y0076441D01*
X0067324Y0076286D01*
X0067624Y0076205D01*
X0068617Y0076205D01*
X0068617Y0079305D01*
X0068715Y0079305D01*
X0068715Y0076205D01*
X0069707Y0076205D01*
X0070008Y0076286D01*
X0070277Y0076441D01*
X0070497Y0076661D01*
X0070652Y0076930D01*
X0070733Y0077231D01*
X0070733Y0079306D01*
X0068715Y0079306D01*
X0068715Y0079404D01*
X0068617Y0079404D01*
X0068617Y0082504D01*
X0067624Y0082504D01*
X0067324Y0082424D01*
X0067055Y0082268D01*
X0066835Y0082049D01*
X0066679Y0081779D01*
X0066599Y0081479D01*
X0066599Y0079404D01*
X0068617Y0079404D01*
X0068617Y0079306D01*
X0066599Y0079306D01*
X0066599Y0077231D01*
X0066679Y0076930D01*
X0066835Y0076661D01*
X0066599Y0077357D02*
X0044748Y0077357D01*
X0044748Y0078142D02*
X0066599Y0078142D01*
X0066599Y0078928D02*
X0044748Y0078928D01*
X0044748Y0079714D02*
X0066599Y0079714D01*
X0066599Y0080500D02*
X0050957Y0080500D01*
X0052015Y0081286D02*
X0066599Y0081286D01*
X0066858Y0082072D02*
X0052801Y0082072D01*
X0053149Y0082858D02*
X0084089Y0082858D01*
X0084089Y0083644D02*
X0053475Y0083644D01*
X0053607Y0084430D02*
X0084089Y0084430D01*
X0083843Y0085216D02*
X0073343Y0085216D01*
X0073450Y0085322D02*
X0073230Y0085103D01*
X0072960Y0084947D01*
X0072660Y0084867D01*
X0071520Y0084867D01*
X0071520Y0087819D01*
X0071126Y0087819D01*
X0068961Y0087819D01*
X0068961Y0085892D01*
X0069042Y0085592D01*
X0069197Y0085322D01*
X0069417Y0085103D01*
X0069686Y0084947D01*
X0069987Y0084867D01*
X0071126Y0084867D01*
X0071126Y0087819D01*
X0071126Y0088213D01*
X0068961Y0088213D01*
X0068961Y0090140D01*
X0069042Y0090441D01*
X0069197Y0090710D01*
X0069417Y0090930D01*
X0069686Y0091085D01*
X0069987Y0091166D01*
X0071126Y0091166D01*
X0071126Y0088213D01*
X0071520Y0088213D01*
X0071520Y0091166D01*
X0072660Y0091166D01*
X0072960Y0091085D01*
X0073230Y0090930D01*
X0073450Y0090710D01*
X0073605Y0090441D01*
X0073685Y0090140D01*
X0073685Y0088213D01*
X0071520Y0088213D01*
X0071520Y0087819D01*
X0073685Y0087819D01*
X0073685Y0085892D01*
X0073605Y0085592D01*
X0073450Y0085322D01*
X0073685Y0086002D02*
X0083508Y0086002D01*
X0083508Y0086787D02*
X0073685Y0086787D01*
X0073685Y0087573D02*
X0083508Y0087573D01*
X0083508Y0088359D02*
X0073685Y0088359D01*
X0073685Y0089145D02*
X0083508Y0089145D01*
X0083508Y0089931D02*
X0073685Y0089931D01*
X0073442Y0090717D02*
X0083595Y0090717D01*
X0083302Y0091503D02*
X0064335Y0091503D01*
X0064335Y0092289D02*
X0083302Y0092289D01*
X0082874Y0093075D02*
X0064335Y0093075D01*
X0064335Y0093861D02*
X0082721Y0093861D01*
X0082721Y0094647D02*
X0064206Y0094647D01*
X0063430Y0095433D02*
X0082721Y0095433D01*
X0082721Y0096218D02*
X0063430Y0096218D01*
X0063430Y0097004D02*
X0082797Y0097004D01*
X0082011Y0097790D02*
X0063449Y0097790D01*
X0063449Y0098576D02*
X0081225Y0098576D01*
X0082701Y0099355D02*
X0082701Y0101914D01*
X0084670Y0101914D02*
X0085969Y0100615D01*
X0087465Y0100615D01*
X0086343Y0100934D02*
X0088891Y0100934D01*
X0089598Y0100148D02*
X0086333Y0100148D01*
X0086343Y0100184D02*
X0086343Y0101914D01*
X0086343Y0102041D01*
X0086608Y0101776D01*
X0088133Y0101776D01*
X0090223Y0099453D01*
X0085946Y0099453D01*
X0086107Y0099614D01*
X0086262Y0099883D01*
X0086343Y0100184D01*
X0086343Y0101720D02*
X0088183Y0101720D01*
X0088843Y0103371D02*
X0087268Y0103371D01*
X0086481Y0104158D01*
X0086481Y0105615D01*
X0086441Y0105654D01*
X0086441Y0107623D02*
X0089315Y0107623D01*
X0090024Y0106914D01*
X0090024Y0104945D01*
X0093567Y0101008D01*
X0098056Y0101008D01*
X0098056Y0099434D02*
X0092386Y0099434D01*
X0088843Y0103371D01*
X0086343Y0101914D02*
X0084670Y0101914D01*
X0084670Y0101914D01*
X0086343Y0101914D01*
X0082701Y0099355D02*
X0084197Y0097859D01*
X0098056Y0097859D01*
X0098056Y0096284D02*
X0093567Y0096284D01*
X0092386Y0095103D01*
X0089630Y0095103D01*
X0089434Y0094906D01*
X0091663Y0093075D02*
X0092142Y0093075D01*
X0091373Y0092289D02*
X0087117Y0092289D01*
X0087888Y0091503D02*
X0091373Y0091503D01*
X0091373Y0090717D02*
X0088037Y0090717D01*
X0088272Y0089931D02*
X0091373Y0089931D01*
X0091373Y0089145D02*
X0088272Y0089145D01*
X0088272Y0088359D02*
X0091373Y0088359D01*
X0091373Y0087573D02*
X0088272Y0087573D01*
X0088272Y0086787D02*
X0091373Y0086787D01*
X0091373Y0086002D02*
X0088272Y0086002D01*
X0087937Y0085216D02*
X0091373Y0085216D01*
X0091373Y0084430D02*
X0087691Y0084430D01*
X0087691Y0083644D02*
X0091373Y0083644D01*
X0091373Y0082858D02*
X0087691Y0082858D01*
X0088498Y0082072D02*
X0088597Y0082072D01*
X0088597Y0081286D02*
X0088498Y0081286D01*
X0088498Y0080500D02*
X0088597Y0080500D01*
X0088597Y0079714D02*
X0088498Y0079714D01*
X0088498Y0078928D02*
X0088597Y0078928D01*
X0088597Y0078142D02*
X0088498Y0078142D01*
X0088498Y0077357D02*
X0088597Y0077357D01*
X0088597Y0076571D02*
X0088498Y0076571D01*
X0087691Y0075785D02*
X0091373Y0075785D01*
X0091373Y0076571D02*
X0090288Y0076571D01*
X0090615Y0077357D02*
X0091373Y0077357D01*
X0091373Y0078142D02*
X0090615Y0078142D01*
X0090615Y0078928D02*
X0091373Y0078928D01*
X0091373Y0079714D02*
X0090615Y0079714D01*
X0090615Y0080500D02*
X0091373Y0080500D01*
X0091373Y0081286D02*
X0090615Y0081286D01*
X0090355Y0082072D02*
X0091373Y0082072D01*
X0096993Y0080536D02*
X0100654Y0080536D01*
X0104355Y0084237D01*
X0104355Y0093134D01*
X0105930Y0093134D02*
X0105930Y0072898D01*
X0108528Y0070300D01*
X0124709Y0070300D01*
X0124945Y0070536D01*
X0127673Y0068711D02*
X0130349Y0068711D01*
X0130349Y0067926D02*
X0087970Y0067926D01*
X0088272Y0068711D02*
X0094292Y0068711D01*
X0094299Y0068705D02*
X0094568Y0068549D01*
X0094869Y0068469D01*
X0096943Y0068469D01*
X0096943Y0070487D01*
X0093843Y0070487D01*
X0093843Y0069495D01*
X0093923Y0069194D01*
X0094079Y0068925D01*
X0094299Y0068705D01*
X0093843Y0069497D02*
X0088272Y0069497D01*
X0088272Y0070283D02*
X0093843Y0070283D01*
X0093843Y0070585D02*
X0096943Y0070585D01*
X0096943Y0070487D01*
X0097042Y0070487D01*
X0097042Y0070585D01*
X0100142Y0070585D01*
X0100142Y0071577D01*
X0100062Y0071878D01*
X0099906Y0072147D01*
X0099686Y0072367D01*
X0099417Y0072522D01*
X0099117Y0072603D01*
X0097042Y0072603D01*
X0097042Y0070585D01*
X0096943Y0070585D01*
X0096943Y0072603D01*
X0094869Y0072603D01*
X0094568Y0072522D01*
X0094299Y0072367D01*
X0094079Y0072147D01*
X0093923Y0071878D01*
X0093843Y0071577D01*
X0093843Y0070585D01*
X0093843Y0071069D02*
X0088272Y0071069D01*
X0088272Y0071855D02*
X0093917Y0071855D01*
X0092226Y0074213D02*
X0087691Y0074213D01*
X0087691Y0074999D02*
X0091440Y0074999D01*
X0088004Y0073427D02*
X0101227Y0073427D01*
X0100068Y0071855D02*
X0104718Y0071855D01*
X0104335Y0072641D02*
X0088272Y0072641D01*
X0084089Y0074213D02*
X0066422Y0074213D01*
X0066422Y0074999D02*
X0084089Y0074999D01*
X0084089Y0075785D02*
X0066158Y0075785D01*
X0066422Y0073427D02*
X0069237Y0073427D01*
X0068961Y0072641D02*
X0066422Y0072641D01*
X0066112Y0071855D02*
X0068961Y0071855D01*
X0068961Y0071069D02*
X0066422Y0071069D01*
X0066422Y0070283D02*
X0068961Y0070283D01*
X0068961Y0069497D02*
X0066422Y0069497D01*
X0066422Y0068711D02*
X0068961Y0068711D01*
X0068715Y0076571D02*
X0068617Y0076571D01*
X0068617Y0077357D02*
X0068715Y0077357D01*
X0068715Y0078142D02*
X0068617Y0078142D01*
X0068617Y0078928D02*
X0068715Y0078928D01*
X0068715Y0079404D02*
X0070733Y0079404D01*
X0070733Y0081479D01*
X0070652Y0081779D01*
X0070497Y0082049D01*
X0070277Y0082268D01*
X0070008Y0082424D01*
X0069707Y0082504D01*
X0068715Y0082504D01*
X0068715Y0079404D01*
X0068715Y0079714D02*
X0068617Y0079714D01*
X0068617Y0080500D02*
X0068715Y0080500D01*
X0068715Y0081286D02*
X0068617Y0081286D01*
X0068617Y0082072D02*
X0068715Y0082072D01*
X0070473Y0082072D02*
X0084089Y0082072D01*
X0084089Y0081286D02*
X0070733Y0081286D01*
X0070733Y0080500D02*
X0084089Y0080500D01*
X0084089Y0079714D02*
X0070733Y0079714D01*
X0070733Y0078928D02*
X0084089Y0078928D01*
X0084089Y0078142D02*
X0070733Y0078142D01*
X0070733Y0077357D02*
X0084089Y0077357D01*
X0084089Y0076571D02*
X0070406Y0076571D01*
X0071126Y0085216D02*
X0071520Y0085216D01*
X0071520Y0086002D02*
X0071126Y0086002D01*
X0071126Y0086787D02*
X0071520Y0086787D01*
X0071520Y0087573D02*
X0071126Y0087573D01*
X0071126Y0088359D02*
X0071520Y0088359D01*
X0071520Y0089145D02*
X0071126Y0089145D01*
X0071126Y0089931D02*
X0071520Y0089931D01*
X0071520Y0090717D02*
X0071126Y0090717D01*
X0069204Y0090717D02*
X0064335Y0090717D01*
X0064335Y0089931D02*
X0068961Y0089931D01*
X0068961Y0089145D02*
X0064288Y0089145D01*
X0068961Y0088359D02*
X0053508Y0088359D01*
X0053508Y0087573D02*
X0068961Y0087573D01*
X0068961Y0086787D02*
X0053508Y0086787D01*
X0053593Y0086002D02*
X0068961Y0086002D01*
X0069304Y0085216D02*
X0053607Y0085216D01*
X0053508Y0089145D02*
X0056469Y0089145D01*
X0056422Y0089931D02*
X0053508Y0089931D01*
X0053508Y0090717D02*
X0056422Y0090717D01*
X0056422Y0091503D02*
X0053508Y0091503D01*
X0052963Y0092289D02*
X0056422Y0092289D01*
X0056422Y0093075D02*
X0053508Y0093075D01*
X0053508Y0093861D02*
X0056422Y0093861D01*
X0056113Y0094647D02*
X0053508Y0094647D01*
X0053508Y0095433D02*
X0055752Y0095433D01*
X0055752Y0096218D02*
X0053508Y0096218D01*
X0053508Y0097004D02*
X0055752Y0097004D01*
X0055733Y0097790D02*
X0053508Y0097790D01*
X0053508Y0098576D02*
X0055733Y0098576D01*
X0055733Y0099362D02*
X0053508Y0099362D01*
X0053508Y0100148D02*
X0055733Y0100148D01*
X0055733Y0100934D02*
X0053490Y0100934D01*
X0053339Y0101720D02*
X0055733Y0101720D01*
X0055733Y0102506D02*
X0053508Y0102506D01*
X0053508Y0103292D02*
X0055733Y0103292D01*
X0055733Y0104078D02*
X0053508Y0104078D01*
X0053508Y0104863D02*
X0055733Y0104863D01*
X0055733Y0105649D02*
X0053508Y0105649D01*
X0053508Y0106435D02*
X0055733Y0106435D01*
X0055733Y0107221D02*
X0053508Y0107221D01*
X0053508Y0108007D02*
X0055935Y0108007D01*
X0056441Y0108793D02*
X0053508Y0108793D01*
X0053508Y0109579D02*
X0056441Y0109579D01*
X0056441Y0110365D02*
X0053114Y0110365D01*
X0053508Y0111151D02*
X0056441Y0111151D01*
X0056441Y0111937D02*
X0053508Y0111937D01*
X0053508Y0112723D02*
X0056441Y0112723D01*
X0056441Y0113509D02*
X0053508Y0113509D01*
X0053508Y0114294D02*
X0057144Y0114294D01*
X0053508Y0115080D02*
X0064208Y0115080D01*
X0064208Y0114294D02*
X0063653Y0114294D01*
X0063724Y0115866D02*
X0053508Y0115866D01*
X0053530Y0116652D02*
X0063036Y0116652D01*
X0063036Y0117438D02*
X0053607Y0117438D01*
X0053607Y0118224D02*
X0058315Y0118224D01*
X0057721Y0119010D02*
X0053537Y0119010D01*
X0053211Y0119796D02*
X0057721Y0119796D01*
X0057721Y0120582D02*
X0052886Y0120582D01*
X0052166Y0121368D02*
X0057721Y0121368D01*
X0057721Y0122154D02*
X0051320Y0122154D01*
X0053510Y0126869D02*
X0058084Y0126869D01*
X0058283Y0127655D02*
X0054713Y0127655D01*
X0055499Y0128441D02*
X0058102Y0128441D01*
X0058178Y0129227D02*
X0056115Y0129227D01*
X0056440Y0130013D02*
X0058556Y0130013D01*
X0059626Y0130799D02*
X0056766Y0130799D01*
X0056953Y0131585D02*
X0064264Y0131585D01*
X0064473Y0131585D02*
X0065260Y0131585D01*
X0065469Y0131585D02*
X0069521Y0131585D01*
X0068882Y0132370D02*
X0067274Y0132370D01*
X0067998Y0133156D02*
X0068882Y0133156D01*
X0068882Y0133942D02*
X0068427Y0133942D01*
X0068651Y0134728D02*
X0068882Y0134728D01*
X0068882Y0135514D02*
X0065260Y0135514D01*
X0065260Y0134728D02*
X0064473Y0134728D01*
X0064473Y0133942D02*
X0065260Y0133942D01*
X0065260Y0133156D02*
X0064473Y0133156D01*
X0064473Y0132370D02*
X0065260Y0132370D01*
X0062459Y0132370D02*
X0056953Y0132370D01*
X0056953Y0133156D02*
X0061735Y0133156D01*
X0061307Y0133942D02*
X0056877Y0133942D01*
X0056551Y0134728D02*
X0061082Y0134728D01*
X0061136Y0136300D02*
X0055767Y0136300D01*
X0056226Y0135514D02*
X0064473Y0135514D01*
X0061931Y0137872D02*
X0054157Y0137872D01*
X0054981Y0137086D02*
X0061419Y0137086D01*
X0061367Y0130799D02*
X0075360Y0130799D01*
X0075044Y0130013D02*
X0062438Y0130013D01*
X0062815Y0129227D02*
X0075044Y0129227D01*
X0075044Y0128441D02*
X0068522Y0128441D01*
X0068981Y0127655D02*
X0075044Y0127655D01*
X0075044Y0126869D02*
X0068981Y0126869D01*
X0068981Y0126083D02*
X0075044Y0126083D01*
X0075044Y0125297D02*
X0068981Y0125297D01*
X0068981Y0124511D02*
X0075044Y0124511D01*
X0075044Y0123725D02*
X0068981Y0123725D01*
X0068981Y0122939D02*
X0075044Y0122939D01*
X0074712Y0122154D02*
X0068510Y0122154D01*
X0068981Y0121368D02*
X0074095Y0121368D01*
X0075930Y0117438D02*
X0080183Y0117438D01*
X0079397Y0116652D02*
X0068981Y0116652D01*
X0068293Y0115866D02*
X0075566Y0115866D01*
X0075103Y0115080D02*
X0067809Y0115080D01*
X0067809Y0114294D02*
X0071971Y0114294D01*
X0071345Y0113509D02*
X0067809Y0113509D01*
X0067809Y0112723D02*
X0071094Y0112723D01*
X0071099Y0111937D02*
X0067809Y0111937D01*
X0067809Y0111151D02*
X0071425Y0111151D01*
X0070748Y0110365D02*
X0067809Y0110365D01*
X0067809Y0109579D02*
X0069962Y0109579D01*
X0069176Y0108793D02*
X0067809Y0108793D01*
X0067809Y0108007D02*
X0069138Y0108007D01*
X0069138Y0107221D02*
X0067681Y0107221D01*
X0066895Y0106435D02*
X0069138Y0106435D01*
X0069138Y0105649D02*
X0066109Y0105649D01*
X0065324Y0104863D02*
X0069138Y0104863D01*
X0069138Y0104078D02*
X0063449Y0104078D01*
X0063449Y0103292D02*
X0069138Y0103292D01*
X0069343Y0102506D02*
X0063449Y0102506D01*
X0063449Y0101720D02*
X0070129Y0101720D01*
X0070914Y0100934D02*
X0063449Y0100934D01*
X0063449Y0100148D02*
X0071750Y0100148D01*
X0072308Y0101796D02*
X0073489Y0101796D01*
X0073607Y0101914D01*
X0076796Y0101914D01*
X0075582Y0099362D02*
X0063449Y0099362D01*
X0070733Y0103371D02*
X0072308Y0101796D01*
X0070733Y0103371D02*
X0070733Y0108095D01*
X0072308Y0109670D01*
X0074945Y0109670D01*
X0075024Y0109591D01*
X0075024Y0110890D01*
X0073489Y0112426D01*
X0075006Y0114294D02*
X0075103Y0114294D01*
X0078764Y0114294D02*
X0078764Y0114294D01*
X0078764Y0113509D02*
X0078764Y0113509D01*
X0078764Y0115080D02*
X0078764Y0115080D01*
X0078764Y0115866D02*
X0078764Y0115866D01*
X0080733Y0115733D02*
X0081756Y0116756D01*
X0085300Y0116756D01*
X0094748Y0107308D01*
X0094748Y0104945D01*
X0095536Y0104158D01*
X0098056Y0104158D01*
X0098056Y0102583D02*
X0094748Y0102583D01*
X0091993Y0105733D01*
X0091993Y0107308D01*
X0089630Y0109670D01*
X0086520Y0109670D01*
X0086441Y0109591D01*
X0080733Y0113331D02*
X0080733Y0115733D01*
X0080969Y0118224D02*
X0077490Y0118224D01*
X0078302Y0119010D02*
X0083547Y0119010D01*
X0082761Y0119796D02*
X0078628Y0119796D01*
X0078639Y0120582D02*
X0081975Y0120582D01*
X0081189Y0121368D02*
X0078394Y0121368D01*
X0082150Y0122662D02*
X0082150Y0126205D01*
X0078449Y0126205D01*
X0078213Y0126441D01*
X0081382Y0128441D02*
X0082091Y0128441D01*
X0082091Y0129227D02*
X0081382Y0129227D01*
X0081382Y0130013D02*
X0082091Y0130013D01*
X0082091Y0130799D02*
X0081066Y0130799D01*
X0081332Y0131585D02*
X0075960Y0131585D01*
X0076638Y0131323D02*
X0068371Y0131323D01*
X0068597Y0136300D02*
X0068882Y0136300D01*
X0068882Y0137086D02*
X0068314Y0137086D01*
X0067802Y0137872D02*
X0068882Y0137872D01*
X0076599Y0137872D02*
X0081323Y0137872D01*
X0081323Y0137086D02*
X0076599Y0137086D01*
X0076599Y0136300D02*
X0081323Y0136300D01*
X0081761Y0135514D02*
X0076599Y0135514D01*
X0076599Y0134728D02*
X0081304Y0134728D01*
X0081304Y0133942D02*
X0076599Y0133942D01*
X0076599Y0133156D02*
X0081304Y0133156D01*
X0081304Y0132370D02*
X0076599Y0132370D01*
X0076638Y0131323D02*
X0079394Y0134079D01*
X0080378Y0134079D01*
X0083686Y0133292D02*
X0083686Y0126953D01*
X0082937Y0126205D01*
X0082150Y0126205D01*
X0082150Y0122662D02*
X0094355Y0110457D01*
X0098056Y0110457D01*
X0098056Y0112032D02*
X0095536Y0112032D01*
X0088056Y0119512D01*
X0088056Y0126441D01*
X0088056Y0133252D01*
X0088016Y0133292D01*
X0087819Y0137426D02*
X0083882Y0137426D01*
X0083882Y0137819D01*
X0086048Y0137819D01*
X0087819Y0137819D01*
X0087819Y0137426D01*
X0088016Y0137623D02*
X0092347Y0137623D01*
X0092386Y0137662D01*
X0092189Y0137859D02*
X0092189Y0137465D01*
X0090024Y0137465D01*
X0090024Y0137426D01*
X0088213Y0137426D01*
X0088213Y0137819D01*
X0090378Y0137819D01*
X0090378Y0137859D01*
X0092189Y0137859D01*
X0092583Y0137859D02*
X0094748Y0137859D01*
X0094748Y0138646D01*
X0100831Y0138646D01*
X0100831Y0133720D01*
X0101416Y0133134D01*
X0100831Y0132549D01*
X0100831Y0127420D01*
X0101535Y0126717D01*
X0101609Y0126717D01*
X0101609Y0121935D01*
X0101186Y0121511D01*
X0101186Y0119237D01*
X0100383Y0119237D01*
X0099663Y0118517D01*
X0099569Y0123174D01*
X0099970Y0123174D01*
X0100674Y0123877D01*
X0100674Y0129006D01*
X0100041Y0129638D01*
X0100198Y0129729D01*
X0100418Y0129948D01*
X0100574Y0130218D01*
X0100654Y0130518D01*
X0100654Y0132347D01*
X0098095Y0132347D01*
X0098095Y0133134D01*
X0100654Y0133134D01*
X0100654Y0134963D01*
X0100574Y0135263D01*
X0100418Y0135533D01*
X0100198Y0135753D01*
X0099929Y0135908D01*
X0099628Y0135989D01*
X0098095Y0135989D01*
X0098095Y0133134D01*
X0097308Y0133134D01*
X0097308Y0135989D01*
X0095774Y0135989D01*
X0095474Y0135908D01*
X0095204Y0135753D01*
X0094984Y0135533D01*
X0094829Y0135263D01*
X0094763Y0135015D01*
X0094261Y0135517D01*
X0094293Y0135536D01*
X0094512Y0135756D01*
X0094668Y0136025D01*
X0094748Y0136325D01*
X0094748Y0137465D01*
X0092583Y0137465D01*
X0092583Y0137859D01*
X0094748Y0137872D02*
X0100831Y0137872D01*
X0100831Y0137086D02*
X0094748Y0137086D01*
X0094742Y0136300D02*
X0100831Y0136300D01*
X0100831Y0135514D02*
X0100429Y0135514D01*
X0100654Y0134728D02*
X0100831Y0134728D01*
X0100831Y0133942D02*
X0100654Y0133942D01*
X0100654Y0133156D02*
X0101394Y0133156D01*
X0100831Y0132370D02*
X0098095Y0132370D01*
X0098095Y0133156D02*
X0097308Y0133156D01*
X0097308Y0133942D02*
X0098095Y0133942D01*
X0098095Y0134728D02*
X0097308Y0134728D01*
X0097308Y0135514D02*
X0098095Y0135514D01*
X0094974Y0135514D02*
X0094264Y0135514D01*
X0092386Y0133331D02*
X0092386Y0117937D01*
X0096717Y0113607D01*
X0098056Y0113607D01*
X0097898Y0116756D02*
X0101205Y0116756D01*
X0102780Y0116756D02*
X0102780Y0120851D01*
X0103410Y0121481D01*
X0101609Y0122154D02*
X0099590Y0122154D01*
X0099574Y0122939D02*
X0101609Y0122939D01*
X0101609Y0123725D02*
X0100522Y0123725D01*
X0100674Y0124511D02*
X0101609Y0124511D01*
X0101609Y0125297D02*
X0100674Y0125297D01*
X0100674Y0126083D02*
X0101609Y0126083D01*
X0101383Y0126869D02*
X0100674Y0126869D01*
X0100674Y0127655D02*
X0100831Y0127655D01*
X0100831Y0128441D02*
X0100674Y0128441D01*
X0100831Y0129227D02*
X0100453Y0129227D01*
X0100455Y0130013D02*
X0100831Y0130013D01*
X0100831Y0130799D02*
X0100654Y0130799D01*
X0100654Y0131585D02*
X0100831Y0131585D01*
X0108922Y0126599D02*
X0105772Y0123449D01*
X0105772Y0121087D01*
X0104355Y0119670D01*
X0104355Y0116756D01*
X0105930Y0116756D02*
X0105930Y0113764D01*
X0105378Y0113213D01*
X0106323Y0113213D01*
X0107504Y0112032D01*
X0105930Y0116756D02*
X0105930Y0118882D01*
X0108134Y0121087D01*
X0108134Y0122662D01*
X0108528Y0122662D01*
X0107517Y0122939D02*
X0117957Y0122939D01*
X0117957Y0122929D02*
X0117710Y0122682D01*
X0111805Y0122682D01*
X0110871Y0121748D01*
X0109060Y0119937D01*
X0109060Y0119237D01*
X0106683Y0119237D01*
X0106602Y0119156D01*
X0106376Y0119217D01*
X0106157Y0119217D01*
X0107367Y0120427D01*
X0107367Y0122789D01*
X0109376Y0124798D01*
X0111067Y0124798D01*
X0111067Y0124271D01*
X0111771Y0123567D01*
X0116309Y0123567D01*
X0117012Y0124271D01*
X0117012Y0129399D01*
X0116380Y0130032D01*
X0116537Y0130122D01*
X0116757Y0130342D01*
X0116912Y0130612D01*
X0116993Y0130912D01*
X0116993Y0132741D01*
X0114434Y0132741D01*
X0114434Y0133528D01*
X0116993Y0133528D01*
X0116993Y0135357D01*
X0116912Y0135657D01*
X0116757Y0135926D01*
X0116537Y0136146D01*
X0116267Y0136302D01*
X0115967Y0136382D01*
X0114434Y0136382D01*
X0114434Y0133528D01*
X0113646Y0133528D01*
X0113646Y0136382D01*
X0112113Y0136382D01*
X0111812Y0136302D01*
X0111543Y0136146D01*
X0111323Y0135926D01*
X0111168Y0135657D01*
X0111087Y0135357D01*
X0111087Y0135226D01*
X0110817Y0135497D01*
X0111304Y0135983D01*
X0111304Y0138646D01*
X0117957Y0138646D01*
X0117957Y0132721D01*
X0117873Y0132721D01*
X0117170Y0132018D01*
X0117170Y0128661D01*
X0117657Y0128174D01*
X0117170Y0127687D01*
X0117170Y0124330D01*
X0117873Y0123626D01*
X0117957Y0123626D01*
X0117957Y0122929D01*
X0117774Y0123725D02*
X0116467Y0123725D01*
X0117012Y0124511D02*
X0117170Y0124511D01*
X0117170Y0125297D02*
X0117012Y0125297D01*
X0117012Y0126083D02*
X0117170Y0126083D01*
X0117170Y0126869D02*
X0117012Y0126869D01*
X0117012Y0127655D02*
X0117170Y0127655D01*
X0117012Y0128441D02*
X0117389Y0128441D01*
X0117170Y0129227D02*
X0117012Y0129227D01*
X0117170Y0130013D02*
X0116399Y0130013D01*
X0116962Y0130799D02*
X0117170Y0130799D01*
X0117170Y0131585D02*
X0116993Y0131585D01*
X0116993Y0132370D02*
X0117523Y0132370D01*
X0117957Y0133156D02*
X0114434Y0133156D01*
X0114434Y0133942D02*
X0113646Y0133942D01*
X0113646Y0134728D02*
X0114434Y0134728D01*
X0114434Y0135514D02*
X0113646Y0135514D01*
X0113646Y0136300D02*
X0114434Y0136300D01*
X0116271Y0136300D02*
X0117957Y0136300D01*
X0117957Y0137086D02*
X0111304Y0137086D01*
X0111304Y0137872D02*
X0117957Y0137872D01*
X0119552Y0138016D02*
X0120339Y0138804D01*
X0136087Y0138804D01*
X0138056Y0136835D01*
X0138056Y0134867D01*
X0141028Y0134728D02*
X0141599Y0134728D01*
X0141599Y0133942D02*
X0141028Y0133942D01*
X0141028Y0133156D02*
X0141599Y0133156D01*
X0141599Y0132370D02*
X0141028Y0132370D01*
X0141028Y0132302D02*
X0141028Y0137431D01*
X0140325Y0138134D01*
X0139011Y0138134D01*
X0138716Y0138430D01*
X0138499Y0138646D01*
X0141599Y0138646D01*
X0141599Y0101076D01*
X0141185Y0101457D01*
X0141185Y0102884D01*
X0140482Y0103587D01*
X0137583Y0103587D01*
X0137583Y0109439D01*
X0137360Y0109662D01*
X0137426Y0109908D01*
X0137426Y0111048D01*
X0135260Y0111048D01*
X0135260Y0111441D01*
X0137426Y0111441D01*
X0137426Y0112581D01*
X0137345Y0112882D01*
X0137216Y0113105D01*
X0137229Y0113118D01*
X0137385Y0113387D01*
X0137465Y0113687D01*
X0137465Y0114827D01*
X0135300Y0114827D01*
X0135300Y0115221D01*
X0137465Y0115221D01*
X0137465Y0116361D01*
X0137385Y0116661D01*
X0137229Y0116930D01*
X0137009Y0117150D01*
X0136740Y0117306D01*
X0136439Y0117386D01*
X0135659Y0117386D01*
X0135713Y0117440D01*
X0135713Y0122175D01*
X0135205Y0122683D01*
X0135237Y0122701D01*
X0135457Y0122921D01*
X0135613Y0123190D01*
X0135693Y0123491D01*
X0135693Y0125123D01*
X0133233Y0125123D01*
X0133233Y0125910D01*
X0135261Y0125910D01*
X0135339Y0125775D01*
X0135559Y0125555D01*
X0135828Y0125400D01*
X0136128Y0125319D01*
X0137662Y0125319D01*
X0137662Y0128174D01*
X0135395Y0128174D01*
X0135237Y0128331D01*
X0134968Y0128487D01*
X0134840Y0128521D01*
X0134906Y0128766D01*
X0134906Y0129906D01*
X0132741Y0129906D01*
X0132741Y0130300D01*
X0134906Y0130300D01*
X0134906Y0131439D01*
X0134825Y0131740D01*
X0134670Y0132009D01*
X0134450Y0132229D01*
X0134181Y0132385D01*
X0133880Y0132465D01*
X0132838Y0132465D01*
X0132974Y0132544D01*
X0133194Y0132763D01*
X0133349Y0133033D01*
X0133430Y0133333D01*
X0133430Y0134867D01*
X0130575Y0134867D01*
X0130575Y0135654D01*
X0133430Y0135654D01*
X0133430Y0137187D01*
X0133424Y0137209D01*
X0135083Y0137209D01*
X0135083Y0132302D01*
X0135715Y0131670D01*
X0135559Y0131579D01*
X0135339Y0131360D01*
X0135183Y0131090D01*
X0135103Y0130790D01*
X0135103Y0128961D01*
X0137662Y0128961D01*
X0137662Y0128174D01*
X0138449Y0128174D01*
X0138449Y0128961D01*
X0141008Y0128961D01*
X0141008Y0130790D01*
X0140928Y0131090D01*
X0140772Y0131360D01*
X0140552Y0131579D01*
X0140396Y0131670D01*
X0141028Y0132302D01*
X0140544Y0131585D02*
X0141599Y0131585D01*
X0141599Y0130799D02*
X0141006Y0130799D01*
X0141008Y0130013D02*
X0141599Y0130013D01*
X0141599Y0129227D02*
X0141008Y0129227D01*
X0141599Y0128441D02*
X0138449Y0128441D01*
X0138449Y0128174D02*
X0141008Y0128174D01*
X0141008Y0126345D01*
X0140928Y0126045D01*
X0140772Y0125775D01*
X0140552Y0125555D01*
X0140283Y0125400D01*
X0139983Y0125319D01*
X0138449Y0125319D01*
X0138449Y0128174D01*
X0138449Y0127655D02*
X0137662Y0127655D01*
X0137662Y0128441D02*
X0135048Y0128441D01*
X0135103Y0129227D02*
X0134906Y0129227D01*
X0135103Y0130013D02*
X0132741Y0130013D01*
X0132741Y0129906D02*
X0132741Y0127741D01*
X0133233Y0127741D01*
X0133233Y0125910D01*
X0132445Y0125910D01*
X0132445Y0128567D01*
X0132347Y0128567D01*
X0132347Y0129906D01*
X0132741Y0129906D01*
X0132741Y0129227D02*
X0132347Y0129227D01*
X0132445Y0128441D02*
X0132741Y0128441D01*
X0132445Y0127655D02*
X0133233Y0127655D01*
X0133233Y0126869D02*
X0132445Y0126869D01*
X0132445Y0126083D02*
X0133233Y0126083D01*
X0132839Y0125516D02*
X0128311Y0119808D01*
X0127918Y0119414D02*
X0128705Y0119414D01*
X0128705Y0117017D01*
X0128390Y0116703D01*
X0128390Y0115662D01*
X0128249Y0115595D01*
X0127946Y0115595D01*
X0127675Y0115324D01*
X0127328Y0115160D01*
X0127226Y0114875D01*
X0126264Y0113913D01*
X0126264Y0116815D01*
X0126483Y0116756D01*
X0127918Y0116756D01*
X0127918Y0119414D01*
X0127918Y0119010D02*
X0128705Y0119010D01*
X0128705Y0118224D02*
X0127918Y0118224D01*
X0127918Y0117438D02*
X0128705Y0117438D01*
X0128390Y0116652D02*
X0126264Y0116652D01*
X0126264Y0115866D02*
X0128390Y0115866D01*
X0127300Y0115080D02*
X0126264Y0115080D01*
X0126264Y0114294D02*
X0126646Y0114294D01*
X0128607Y0114000D02*
X0130772Y0115024D01*
X0128607Y0114000D02*
X0125063Y0110457D01*
X0121678Y0110457D01*
X0121678Y0108882D02*
X0126245Y0108882D01*
X0128607Y0111245D01*
X0130733Y0111245D01*
X0130339Y0107111D02*
X0128961Y0105733D01*
X0121678Y0105733D01*
X0118528Y0105733D01*
X0116953Y0107308D01*
X0118725Y0105339D02*
X0110260Y0105339D01*
X0110260Y0104552D01*
X0118725Y0104552D01*
X0118725Y0105339D01*
X0118725Y0104863D02*
X0110260Y0104863D01*
X0121678Y0104158D02*
X0128961Y0104158D01*
X0130339Y0102780D01*
X0126245Y0097859D02*
X0121678Y0097859D01*
X0121678Y0096284D02*
X0123882Y0096284D01*
X0124670Y0095497D01*
X0125063Y0095497D01*
X0128213Y0092347D01*
X0130608Y0092289D02*
X0141599Y0092289D01*
X0141599Y0093075D02*
X0130503Y0093075D01*
X0130608Y0092823D02*
X0130243Y0093703D01*
X0130025Y0093922D01*
X0137353Y0093922D01*
X0137583Y0094152D01*
X0137583Y0098823D01*
X0138729Y0098823D01*
X0140689Y0097014D01*
X0141599Y0097050D01*
X0141599Y0063607D01*
X0136500Y0063607D01*
X0136500Y0066466D01*
X0135797Y0067170D01*
X0133951Y0067170D01*
X0133951Y0070205D01*
X0134532Y0070787D01*
X0134532Y0071067D01*
X0136354Y0071067D01*
X0137288Y0072001D01*
X0138469Y0073183D01*
X0138469Y0080409D01*
X0137535Y0081343D01*
X0128856Y0090022D01*
X0129569Y0090317D01*
X0130243Y0090991D01*
X0130608Y0091871D01*
X0130608Y0092823D01*
X0130086Y0093861D02*
X0141599Y0093861D01*
X0141599Y0094647D02*
X0137583Y0094647D01*
X0137583Y0095433D02*
X0141599Y0095433D01*
X0141599Y0096218D02*
X0137583Y0096218D01*
X0137583Y0097004D02*
X0141599Y0097004D01*
X0139848Y0097790D02*
X0137583Y0097790D01*
X0137583Y0098576D02*
X0138997Y0098576D01*
X0141185Y0101720D02*
X0141599Y0101720D01*
X0141599Y0102506D02*
X0141185Y0102506D01*
X0140778Y0103292D02*
X0141599Y0103292D01*
X0141599Y0104078D02*
X0137583Y0104078D01*
X0137583Y0104863D02*
X0141599Y0104863D01*
X0141599Y0105649D02*
X0137583Y0105649D01*
X0137583Y0106435D02*
X0141599Y0106435D01*
X0141599Y0107221D02*
X0137583Y0107221D01*
X0137583Y0108007D02*
X0141599Y0108007D01*
X0141599Y0108793D02*
X0137583Y0108793D01*
X0137443Y0109579D02*
X0141599Y0109579D01*
X0141599Y0110365D02*
X0137426Y0110365D01*
X0137426Y0111937D02*
X0141599Y0111937D01*
X0141599Y0112723D02*
X0137388Y0112723D01*
X0137417Y0113509D02*
X0141599Y0113509D01*
X0141599Y0114294D02*
X0137465Y0114294D01*
X0137465Y0115866D02*
X0141599Y0115866D01*
X0141599Y0115080D02*
X0135300Y0115080D01*
X0135300Y0114827D02*
X0135300Y0113607D01*
X0135260Y0113607D01*
X0135260Y0111441D01*
X0134867Y0111441D01*
X0134867Y0112662D01*
X0134906Y0112662D01*
X0134906Y0114827D01*
X0135300Y0114827D01*
X0135300Y0114294D02*
X0134906Y0114294D01*
X0134906Y0113509D02*
X0135260Y0113509D01*
X0135260Y0112723D02*
X0134906Y0112723D01*
X0134867Y0111937D02*
X0135260Y0111937D01*
X0135260Y0111151D02*
X0141599Y0111151D01*
X0141599Y0116652D02*
X0137387Y0116652D01*
X0135711Y0117438D02*
X0141599Y0117438D01*
X0141599Y0118224D02*
X0135713Y0118224D01*
X0135713Y0119010D02*
X0141599Y0119010D01*
X0141599Y0119796D02*
X0135713Y0119796D01*
X0135713Y0120582D02*
X0141599Y0120582D01*
X0141599Y0121368D02*
X0135713Y0121368D01*
X0135713Y0122154D02*
X0141599Y0122154D01*
X0141599Y0122939D02*
X0135468Y0122939D01*
X0135693Y0123725D02*
X0141599Y0123725D01*
X0141599Y0124511D02*
X0135693Y0124511D01*
X0137662Y0126083D02*
X0138449Y0126083D01*
X0138449Y0126869D02*
X0137662Y0126869D01*
X0140938Y0126083D02*
X0141599Y0126083D01*
X0141599Y0125297D02*
X0133233Y0125297D01*
X0128311Y0125516D02*
X0124670Y0121481D01*
X0124670Y0112819D01*
X0123882Y0112032D01*
X0121678Y0112032D01*
X0121678Y0113607D02*
X0121678Y0116599D01*
X0121520Y0116756D01*
X0119158Y0119512D02*
X0123489Y0123843D01*
X0123489Y0126008D01*
X0119552Y0126008D02*
X0119552Y0122268D01*
X0118371Y0121087D01*
X0112465Y0121087D01*
X0110654Y0119276D01*
X0110654Y0116756D01*
X0112229Y0116756D02*
X0112229Y0118489D01*
X0113252Y0119512D01*
X0119158Y0119512D01*
X0111277Y0122154D02*
X0107367Y0122154D01*
X0107367Y0121368D02*
X0110491Y0121368D01*
X0109705Y0120582D02*
X0107367Y0120582D01*
X0106736Y0119796D02*
X0109060Y0119796D01*
X0108303Y0123725D02*
X0111613Y0123725D01*
X0111067Y0124511D02*
X0109089Y0124511D01*
X0101186Y0121368D02*
X0099606Y0121368D01*
X0099622Y0120582D02*
X0101186Y0120582D01*
X0101186Y0119796D02*
X0099637Y0119796D01*
X0099653Y0119010D02*
X0100157Y0119010D01*
X0110834Y0135514D02*
X0111129Y0135514D01*
X0111304Y0136300D02*
X0111809Y0136300D01*
X0116950Y0135514D02*
X0117957Y0135514D01*
X0117957Y0134728D02*
X0116993Y0134728D01*
X0116993Y0133942D02*
X0117957Y0133942D01*
X0119552Y0130339D02*
X0119552Y0138016D01*
X0129788Y0134867D02*
X0129788Y0132485D01*
X0129892Y0132485D01*
X0130399Y0131977D01*
X0130418Y0132009D01*
X0130637Y0132229D01*
X0130773Y0132308D01*
X0130575Y0132308D01*
X0130575Y0134867D01*
X0129788Y0134867D01*
X0129788Y0134728D02*
X0130575Y0134728D01*
X0130575Y0133942D02*
X0129788Y0133942D01*
X0129788Y0133156D02*
X0130575Y0133156D01*
X0130575Y0132370D02*
X0130006Y0132370D01*
X0130575Y0135514D02*
X0135083Y0135514D01*
X0135083Y0134728D02*
X0133430Y0134728D01*
X0133430Y0133942D02*
X0135083Y0133942D01*
X0135083Y0133156D02*
X0133382Y0133156D01*
X0134205Y0132370D02*
X0135083Y0132370D01*
X0134867Y0131585D02*
X0135568Y0131585D01*
X0135105Y0130799D02*
X0134906Y0130799D01*
X0135083Y0136300D02*
X0133430Y0136300D01*
X0133430Y0137086D02*
X0135083Y0137086D01*
X0140587Y0137872D02*
X0141599Y0137872D01*
X0141599Y0137086D02*
X0141028Y0137086D01*
X0141028Y0136300D02*
X0141599Y0136300D01*
X0141599Y0135514D02*
X0141028Y0135514D01*
X0141008Y0127655D02*
X0141599Y0127655D01*
X0141599Y0126869D02*
X0141008Y0126869D01*
X0120339Y0093134D02*
X0118528Y0093134D01*
X0116953Y0093134D02*
X0116953Y0090221D01*
X0119945Y0086441D01*
X0123882Y0089591D02*
X0127032Y0089591D01*
X0136874Y0079748D01*
X0136874Y0073843D01*
X0135693Y0072662D01*
X0132347Y0072662D01*
X0132150Y0072465D01*
X0129768Y0072641D02*
X0120998Y0072641D01*
X0121784Y0073427D02*
X0129768Y0073427D01*
X0129838Y0074213D02*
X0128115Y0074213D01*
X0128115Y0074999D02*
X0129887Y0074999D01*
X0129768Y0075785D02*
X0128115Y0075785D01*
X0128115Y0076571D02*
X0129768Y0076571D01*
X0129043Y0077357D02*
X0127677Y0077357D01*
X0128257Y0078142D02*
X0118213Y0078142D01*
X0116953Y0078142D02*
X0110910Y0078142D01*
X0110910Y0078928D02*
X0113101Y0078928D01*
X0112315Y0079714D02*
X0110910Y0079714D01*
X0110910Y0080500D02*
X0111529Y0080500D01*
X0109315Y0076599D02*
X0109315Y0085654D01*
X0113804Y0090142D01*
X0113804Y0093134D01*
X0115378Y0093134D02*
X0115378Y0086599D01*
X0115221Y0086441D01*
X0120339Y0093134D02*
X0123882Y0089591D01*
X0128947Y0089931D02*
X0141599Y0089931D01*
X0141599Y0089145D02*
X0129733Y0089145D01*
X0130519Y0088359D02*
X0141599Y0088359D01*
X0141599Y0087573D02*
X0131305Y0087573D01*
X0132090Y0086787D02*
X0141599Y0086787D01*
X0141599Y0086002D02*
X0132876Y0086002D01*
X0133662Y0085216D02*
X0141599Y0085216D01*
X0141599Y0084430D02*
X0134448Y0084430D01*
X0135234Y0083644D02*
X0141599Y0083644D01*
X0141599Y0082858D02*
X0136020Y0082858D01*
X0136806Y0082072D02*
X0141599Y0082072D01*
X0141599Y0081286D02*
X0137592Y0081286D01*
X0138378Y0080500D02*
X0141599Y0080500D01*
X0141599Y0079714D02*
X0138469Y0079714D01*
X0138469Y0078928D02*
X0141599Y0078928D01*
X0141599Y0078142D02*
X0138469Y0078142D01*
X0138469Y0077357D02*
X0141599Y0077357D01*
X0141599Y0076571D02*
X0138469Y0076571D01*
X0138469Y0075785D02*
X0141599Y0075785D01*
X0141599Y0074999D02*
X0138469Y0074999D01*
X0138469Y0074213D02*
X0141599Y0074213D01*
X0141599Y0073427D02*
X0138469Y0073427D01*
X0137927Y0072641D02*
X0141599Y0072641D01*
X0141599Y0071855D02*
X0137142Y0071855D01*
X0136356Y0071069D02*
X0141599Y0071069D01*
X0141599Y0070283D02*
X0134029Y0070283D01*
X0133951Y0069497D02*
X0141599Y0069497D01*
X0141599Y0068711D02*
X0133951Y0068711D01*
X0133951Y0067926D02*
X0141599Y0067926D01*
X0141599Y0067140D02*
X0135827Y0067140D01*
X0136500Y0066354D02*
X0141599Y0066354D01*
X0141599Y0065568D02*
X0136500Y0065568D01*
X0136500Y0064782D02*
X0141599Y0064782D01*
X0141599Y0063996D02*
X0136500Y0063996D01*
X0130349Y0069497D02*
X0128115Y0069497D01*
X0128115Y0070283D02*
X0130271Y0070283D01*
X0129768Y0071069D02*
X0128115Y0071069D01*
X0128115Y0071855D02*
X0129768Y0071855D01*
X0128079Y0067140D02*
X0125985Y0067140D01*
X0126658Y0066354D02*
X0127406Y0066354D01*
X0127406Y0065568D02*
X0126658Y0065568D01*
X0126658Y0064782D02*
X0127406Y0064782D01*
X0127406Y0063996D02*
X0126658Y0063996D01*
X0118764Y0072662D02*
X0121520Y0075418D01*
X0124827Y0075418D01*
X0124945Y0075536D01*
X0122213Y0077357D02*
X0119424Y0077357D01*
X0119860Y0076571D02*
X0120418Y0076571D01*
X0118764Y0072662D02*
X0108922Y0072662D01*
X0107504Y0074079D01*
X0107504Y0093134D01*
X0102780Y0093134D02*
X0102780Y0088174D01*
X0100260Y0085654D01*
X0097111Y0085654D01*
X0096993Y0085536D01*
X0097504Y0093134D02*
X0101205Y0093134D01*
X0109315Y0076599D02*
X0110103Y0075811D01*
X0104335Y0073427D02*
X0104018Y0073427D01*
X0105504Y0071069D02*
X0100142Y0071069D01*
X0100142Y0070487D02*
X0097042Y0070487D01*
X0097042Y0068469D01*
X0099117Y0068469D01*
X0099417Y0068549D01*
X0099686Y0068705D01*
X0099906Y0068925D01*
X0100062Y0069194D01*
X0100142Y0069495D01*
X0100142Y0070487D01*
X0100142Y0070283D02*
X0106289Y0070283D01*
X0107075Y0069497D02*
X0100142Y0069497D01*
X0099693Y0068711D02*
X0107861Y0068711D01*
X0108001Y0067140D02*
X0105906Y0067140D01*
X0106579Y0066354D02*
X0107327Y0066354D01*
X0107327Y0065568D02*
X0106579Y0065568D01*
X0106579Y0064782D02*
X0107327Y0064782D01*
X0107327Y0063996D02*
X0106579Y0063996D01*
X0098158Y0067140D02*
X0095670Y0067140D01*
X0096343Y0066354D02*
X0097485Y0066354D01*
X0097485Y0065568D02*
X0096343Y0065568D01*
X0096343Y0064782D02*
X0097485Y0064782D01*
X0097485Y0063996D02*
X0096343Y0063996D01*
X0096943Y0068711D02*
X0097042Y0068711D01*
X0097042Y0069497D02*
X0096943Y0069497D01*
X0096943Y0070283D02*
X0097042Y0070283D01*
X0097042Y0071069D02*
X0096943Y0071069D01*
X0096943Y0071855D02*
X0097042Y0071855D01*
X0088316Y0067140D02*
X0085827Y0067140D01*
X0086500Y0066354D02*
X0087642Y0066354D01*
X0087642Y0065568D02*
X0086500Y0065568D01*
X0086500Y0064782D02*
X0087642Y0064782D01*
X0087642Y0063996D02*
X0086500Y0063996D01*
X0115748Y0067140D02*
X0118237Y0067140D01*
X0117563Y0066354D02*
X0116422Y0066354D01*
X0116422Y0065568D02*
X0117563Y0065568D01*
X0117563Y0064782D02*
X0116422Y0064782D01*
X0116422Y0063996D02*
X0117563Y0063996D01*
X0129969Y0090717D02*
X0141599Y0090717D01*
X0141599Y0091503D02*
X0130455Y0091503D01*
X0088016Y0137623D02*
X0083686Y0137623D01*
X0063495Y0128441D02*
X0062891Y0128441D01*
X0063036Y0127655D02*
X0062710Y0127655D01*
X0063036Y0126869D02*
X0062184Y0126869D01*
X0062485Y0126083D02*
X0063036Y0126083D01*
X0063036Y0125297D02*
X0062485Y0125297D01*
X0063018Y0120582D02*
X0063036Y0120582D01*
X0063036Y0119796D02*
X0062485Y0119796D01*
X0062485Y0119010D02*
X0063036Y0119010D01*
X0063036Y0118224D02*
X0061891Y0118224D01*
X0057930Y0122939D02*
X0044748Y0122939D01*
X0044748Y0122154D02*
X0045815Y0122154D01*
X0044969Y0121368D02*
X0044748Y0121368D01*
X0044748Y0123725D02*
X0057721Y0123725D01*
X0057721Y0124511D02*
X0044748Y0124511D01*
X0044748Y0125297D02*
X0057721Y0125297D01*
X0057721Y0126083D02*
X0044748Y0126083D01*
X0044748Y0126869D02*
X0047798Y0126869D01*
X0046595Y0127655D02*
X0044748Y0127655D01*
X0044748Y0128441D02*
X0045809Y0128441D01*
X0045193Y0129227D02*
X0044748Y0129227D01*
X0044748Y0130013D02*
X0044868Y0130013D01*
X0044748Y0081286D02*
X0045120Y0081286D01*
X0044748Y0080500D02*
X0046178Y0080500D01*
X0047439Y0074999D02*
X0044748Y0074999D01*
X0044748Y0074213D02*
X0046446Y0074213D01*
X0045660Y0073427D02*
X0044748Y0073427D01*
X0044748Y0072641D02*
X0045132Y0072641D01*
X0044806Y0071855D02*
X0044748Y0071855D01*
D37*
X0057544Y0075024D03*
X0057544Y0078174D03*
X0057544Y0081717D03*
X0063449Y0086835D03*
X0071323Y0084473D03*
X0067780Y0094709D03*
X0073489Y0101796D03*
X0079788Y0097071D03*
X0087465Y0100615D03*
X0081953Y0106126D03*
X0079197Y0108882D03*
X0073489Y0112426D03*
X0076245Y0120300D03*
X0080378Y0120300D03*
X0080378Y0134079D03*
X0080378Y0137623D03*
X0095733Y0137623D03*
X0099276Y0137623D03*
X0112662Y0137623D03*
X0116205Y0137623D03*
X0108528Y0122662D03*
X0097898Y0116756D03*
X0121520Y0116756D03*
X0127229Y0116363D03*
X0138252Y0119906D03*
X0138252Y0123843D03*
X0139040Y0115182D03*
X0139040Y0109670D03*
X0139040Y0104552D03*
X0139040Y0095497D03*
X0135890Y0092347D03*
X0131953Y0092347D03*
X0128213Y0092347D03*
X0126245Y0097859D03*
X0119945Y0086441D03*
X0115221Y0086441D03*
X0111678Y0082898D03*
X0117583Y0075811D03*
X0102623Y0075418D03*
X0092977Y0069906D03*
X0089630Y0091166D03*
X0097504Y0093134D03*
X0060497Y0128567D03*
X0061481Y0131717D03*
X0059119Y0134473D03*
X0054394Y0095890D03*
X0139040Y0089591D03*
D38*
X0141363Y0098843D02*
X0138804Y0101205D01*
X0130772Y0115024D02*
X0132839Y0119808D01*
X0132839Y0125516D02*
X0135890Y0128567D01*
X0134355Y0130103D01*
X0132544Y0130103D01*
X0132544Y0132898D01*
X0130182Y0135260D01*
X0128213Y0130103D02*
X0128311Y0130004D01*
X0128311Y0125516D01*
X0123489Y0130339D02*
X0123489Y0134867D01*
X0123882Y0135260D01*
X0116205Y0137623D02*
X0112662Y0137623D01*
X0114040Y0136638D01*
X0114040Y0133134D01*
X0108922Y0133331D02*
X0108922Y0126599D01*
X0113804Y0126599D01*
X0114040Y0126835D01*
X0103804Y0129985D02*
X0103410Y0129591D01*
X0103410Y0121481D01*
X0097898Y0116756D02*
X0097701Y0126441D01*
X0097701Y0132741D02*
X0097701Y0137426D01*
X0097504Y0137623D01*
X0099276Y0137623D01*
X0097504Y0137623D02*
X0095733Y0137623D01*
X0095378Y0137268D01*
X0092386Y0137662D01*
X0083686Y0137623D02*
X0080378Y0137623D01*
X0080378Y0134079D01*
X0076245Y0120300D02*
X0075063Y0119119D01*
X0066008Y0119119D01*
X0066008Y0108095D01*
X0064434Y0106520D01*
X0059591Y0106520D01*
X0059591Y0096284D02*
X0066205Y0096284D01*
X0067780Y0094709D01*
X0071323Y0094709D01*
X0073686Y0097071D01*
X0079788Y0097071D01*
X0085103Y0094906D02*
X0085103Y0091756D01*
X0086087Y0090772D01*
X0086087Y0088213D01*
X0085890Y0088016D01*
X0085890Y0070693D01*
X0078213Y0070693D01*
X0075457Y0066756D01*
X0065221Y0066756D01*
X0064434Y0067544D01*
X0064434Y0069119D01*
X0064040Y0069512D01*
X0060890Y0067150D02*
X0060890Y0072268D01*
X0062465Y0073843D01*
X0064040Y0073843D01*
X0060890Y0067150D02*
X0063646Y0064394D01*
X0080103Y0064394D01*
X0081993Y0061717D01*
X0091993Y0061717D02*
X0091993Y0068922D01*
X0092977Y0069906D01*
X0088548Y0074335D01*
X0088548Y0079355D01*
X0088449Y0079453D01*
X0088449Y0084079D01*
X0089630Y0085260D01*
X0089630Y0091166D01*
X0093174Y0091560D02*
X0094748Y0093134D01*
X0097504Y0093134D01*
X0093174Y0091560D02*
X0093174Y0075811D01*
X0093449Y0075536D01*
X0096993Y0075536D01*
X0097111Y0075418D01*
X0102623Y0075418D01*
X0096993Y0070536D02*
X0093607Y0070536D01*
X0092977Y0069906D01*
X0096756Y0070300D02*
X0096993Y0070536D01*
X0110103Y0075811D02*
X0117583Y0075811D01*
X0114040Y0080536D02*
X0124945Y0080536D01*
X0124945Y0085536D01*
X0124945Y0080536D02*
X0128410Y0080536D01*
X0132150Y0076796D01*
X0132150Y0072465D02*
X0132150Y0061874D01*
X0131993Y0061717D01*
X0114040Y0080536D02*
X0111678Y0082898D01*
X0071323Y0084473D02*
X0071323Y0088016D01*
X0071323Y0094709D01*
X0060103Y0120497D02*
X0066008Y0125418D01*
X0060103Y0124827D02*
X0060103Y0128174D01*
X0060497Y0128567D01*
X0103804Y0136284D02*
X0108922Y0137662D01*
X0135890Y0128567D02*
X0138056Y0128567D01*
D39*
X0059591Y0096284D02*
X0054788Y0096284D01*
X0054394Y0095890D01*
D40*
X0109867Y0104945D02*
X0111678Y0104945D01*
X0111678Y0106914D01*
X0112229Y0107308D01*
X0121520Y0108882D02*
X0121678Y0108882D01*
X0123489Y0134473D02*
X0123882Y0135260D01*
D41*
X0130339Y0102780D02*
X0134473Y0101205D01*
M02*
